<svg width="839" height="289" viewBox="0 0 839 289" fill="none" xmlns="http://www.w3.org/2000/svg">
<path d="M399.915 21.2358L404.432 22.9517C403.654 25.2711 401.882 26.8531 405.554 26.3342C403.082 22.6251 406.401 24.6785 408.658 23.2816C410.049 22.421 410.247 20.522 412.277 20.6438C413.168 16.0377 409.462 21.833 410.053 17.2677C414.759 19.3831 419.197 17.7267 422.427 13.8636C419.008 14.2075 416.585 16.3127 412.85 15.8508C412.235 15.7747 412.357 14.429 412.046 14.268C411.325 13.8954 409.607 16.1161 410.028 12.7395C408.301 12.234 409.325 14.2029 408.147 15.0881C405.391 17.1573 405.823 12.7948 401.713 20.2897C401.314 21.0172 399.526 20.3139 399.915 21.2358Z" fill="#FF7961"/>
<path d="M414.542 12.7175L412.303 11.5975L413.432 8.19413L408.922 7.05604L409.12 11.4166L414.542 12.7175Z" fill="#FF7961"/>
<path d="M407.78 8.74185C407.098 4.29372 406.823 8.54482 406.291 8.88656C404.016 10.3463 401.332 9.37515 402.163 13.8603L405.276 13.3153C404.359 11.1824 406.432 10.1598 407.78 8.74185Z" fill="#FF7961"/>
<path d="M398.791 24.085L398.793 26.3423L402.161 26.3401L402.159 24.0827L398.791 24.085Z" fill="#FF7961"/>
<path d="M422.454 52.4226L422.446 47.8903C420.146 48.2679 421.065 50.653 420.209 52.4186L422.454 52.4226Z" fill="#FF7961"/>
<path d="M380.772 34.2911L379.632 30.8996C376.251 32.0636 377.629 34.4175 380.772 34.2911Z" fill="#FF7961"/>
<path d="M396.54 20.6831L396.541 22.9405L398.782 22.939L398.78 20.6817L396.54 20.6831Z" fill="#FF7961"/>
<path d="M398.779 13.8562L401.026 13.8601L401.019 11.5972L398.779 13.8562Z" fill="#FF7961"/>
<path d="M417.947 51.8591L415.706 51.3048L415.712 53.5676L417.947 51.8591Z" fill="#FF7961"/>
<path d="M417.927 2.52035L417.928 3.63186L420.169 3.63038L420.168 2.51887L417.927 2.52035Z" fill="#FF7961"/>
<path d="M762.584 13.6229C763.397 14.3067 769.267 9.97949 768.219 14.7537L764.819 15.3271L767.077 17.0148C763.766 17.6833 755.86 19.7629 758.733 23.8585L762.577 24.9604C756.583 24.5026 758.602 28.5851 757.671 30.4257C757.533 30.6979 756.356 30.6511 755.844 30.6676L759.166 33.0156L756.945 39.1432L759.2 39.7249C758.437 36.2632 763.149 33.5599 763.718 31.1933C763.778 30.9441 760.87 30.091 761.449 27.2912C768.306 28.1481 771.526 19.7093 772.659 14.0331C773.068 11.9829 772.339 11.2025 773.215 7.92747C774.238 4.10042 765.653 6.03433 763.69 6.82985C766.329 12.3122 762.956 9.68839 762.584 13.6229ZM765.955 20.9938L763.72 22.7024L763.713 20.4396L765.955 20.9938Z" fill="#FF7961"/>
<path d="M746.815 39.7257L745.693 37.4737C741.736 36.9002 743.532 43.4503 737.902 40.8974L732.195 52.7986L737.232 55.6346L738.949 53.366L735.577 52.2365C741.201 49.4725 738.908 52.7186 742.881 54.4977L741.206 52.23L745.704 52.2072L744.668 49.3093L746.818 47.1266L741.196 45.3997C739.745 44.316 750.967 39.1125 748.515 48.8049C750.535 45.9705 751.941 43.3169 755.829 43.1178L752.446 41.4323L755.828 39.7408L746.251 35.2034L746.815 39.7257ZM738.933 46.5528L738.934 48.8104L737.831 48.8111L737.829 46.5535L738.933 46.5528Z" fill="#FF7961"/>
<path d="M712.761 48.5834C710.618 50.1288 705.96 49.2955 705.16 54.5005C706.06 55.3169 718.156 48.8738 715.473 44.8249L719.79 44.279L712.421 40.9241C711.489 43.482 710.097 44.0235 707.407 44.3147L707.418 46.5672L712.487 44.328L713.61 46.5747C713.264 47.1506 713.283 48.207 712.761 48.5834Z" fill="#FF7961"/>
<path d="M700.312 52.575C698.998 52.107 696.67 52.9736 695.022 52.2578C696.313 55.4646 699.195 56.5968 702.323 56.7867C704.205 55.7307 700.53 52.6529 700.312 52.575Z" fill="#FF7961"/>
<path d="M727.657 21.601L728.799 23.8514L724.287 23.8748L725.426 27.2688C729.081 25.3194 731.036 26.0283 731.049 21.6L727.657 21.601Z" fill="#FF7961"/>
<path d="M725.407 32.9402L719.782 34.0842L722.025 38.6045L725.407 32.9402Z" fill="#FF7961"/>
<path d="M755.237 19.2837C756.723 18.6561 759.426 16.2698 760.315 14.7728L752.45 17.0253C756.272 15.8316 752.139 20.592 755.237 19.2837Z" fill="#FF7961"/>
<path d="M737.83 61.2869L741.201 59.576L739.504 56.7689L736.687 57.3269L737.83 61.2869Z" fill="#FF7961"/>
<path d="M747.391 20.4346L749.059 20.4377L747.918 15.9038L744.563 17.6044L747.391 20.4346Z" fill="#FF7961"/>
<path d="M743.442 26.1098L749.062 24.9652L749.059 22.7187C748.392 22.0456 742.351 25.6134 743.442 26.1098Z" fill="#FF7961"/>
<path d="M566.04 44.38L567.74 42.6826L564.372 42.129L564.373 44.3865L566.04 44.38Z" fill="#FF7961"/>
<path d="M686.014 59.0508L683.439 56.4667L682.652 58.5164L686.014 59.0508Z" fill="#FF7961"/>
<path d="M683.752 55.6535L681.512 54.5327L683.44 56.467L683.752 55.6535Z" fill="#FF7961"/>
<path d="M691.655 57.9238L695.021 54.5294C692.966 54.1466 691.282 55.7776 691.655 57.9238Z" fill="#FF7961"/>
<path d="M711.912 38.0491L715.906 40.96L719.78 38.599C719.583 35.7963 715.433 39.1186 714.701 39.7633L714.149 37.5034L711.912 38.0491Z" fill="#FF7961"/>
<path d="M734.431 27.273L734.432 28.3845L738.926 28.3816L738.925 27.27L734.431 27.273Z" fill="#FF7961"/>
<path d="M732.173 59.5994L729.953 57.8991L730.501 61.2968L732.173 59.5994Z" fill="#FF7961"/>
<path d="M698.397 46.562L696.706 44.3279L695.023 46.0139L698.397 46.562Z" fill="#FF7961"/>
<path d="M583.513 33.5947L585.198 35.2784L586.885 33.0421L583.513 33.5947Z" fill="#FF7961"/>
<path d="M693.884 52.2492C695.062 49.2994 691.856 50.3821 691.922 49.4063C692.053 47.4943 693.954 47.2438 690.519 47.7193C689.655 49.2959 693.464 52.696 693.884 52.2492Z" fill="#FF7961"/>
<path d="M741.189 27.2678L741.189 28.3794L744.557 28.3772L744.557 27.2656L741.189 27.2678Z" fill="#FF7961"/>
<path d="M752.461 29.5239L752.463 31.7815L753.566 31.7808L753.565 29.5231L752.461 29.5239Z" fill="#FF7961"/>
<path d="M741.21 55.6336L741.211 56.7451L743.452 56.7437L743.451 55.6321L741.21 55.6336Z" fill="#FF7961"/>
<path d="M697.282 59.0665L697.283 60.178L699.524 60.1765L699.524 59.065L697.282 59.0665Z" fill="#FF7961"/>
<path d="M584.641 28.5009L584.643 30.7586L585.746 30.7578L585.744 28.5002L584.641 28.5009Z" fill="#FF7961"/>
<path d="M151.323 281.917C154.714 279.454 158.901 277.299 162.432 273.292C164.547 270.892 165.797 266.958 167.013 264.867C167.118 264.686 169.813 265.953 171.172 264.531C172.022 263.641 171.843 261.588 172.861 260.55C188.021 245.092 202.937 229.498 217.631 213.446C226.106 204.189 234.977 195.167 243.448 185.855L240.085 186.429C239.842 181.464 243.781 184.427 245.667 183.617C251.983 180.903 261.111 165.554 267.086 160.878L264.84 159.755L270.956 156.895L270.473 153.515L272.149 155.77C277.745 151.649 282.606 146.39 283.983 139.888L285.657 142.146C288.757 138.646 291.843 135.026 294.829 131.467C295.782 130.33 294.153 127.553 298.6 128.515L295.234 125.128C298.813 126.326 301.924 125.302 304.223 122.265L301.988 119.455L305.946 119.449L305.35 116.046L310.995 116.028L309.851 113.796C316.074 115.495 316.374 104.192 316.862 103.734C319.304 101.444 330.233 101.477 329.006 94.4714L325.622 93.3482L333.271 93.1571L345.872 80.8175L343.051 76.2996C346.376 72.5304 354.103 76.9506 354.875 69.4907L351.51 68.3691C356.904 68.1158 360.648 67.3582 363.093 61.8668L371.759 55.8426C369.085 52.235 366.264 53.4487 368.4 47.9292L372.337 54.7089L383.022 45.071L379.654 43.387C388.325 46.4518 391.111 35.5316 394.796 31.9135C395.863 30.8669 399.859 31.8128 401.017 29.18L396.549 26.3452C397.015 31.6008 392.247 29.7591 392.007 33.1442L388.661 30.8846L386.406 34.29L387.062 29.6368C392.327 30.3674 393.3 26.688 397.649 25.1968C396.46 22.5013 390.728 25.4622 388.655 25.2081C389.202 21.5493 395.08 23.1468 395.404 22.9374C395.656 22.7746 395.066 18.8885 396.515 17.2721C390.756 15.9132 389.89 19.2271 385.283 22.3821L387.518 25.2089L380.769 26.93L385.282 27.4993L385.276 36.0087C374.215 32.8692 375.233 38.814 370.069 45.6482L368.947 43.3699L367.822 45.6681C366.45 40.6303 362.822 44.7102 360.508 47.3663L364.995 45.6563C363.705 49.4591 361.628 52.9755 357.114 52.4753L358.14 55.3486L356.207 56.0779L357.13 59.2663C350.123 59.0549 358.579 53.7508 354.889 51.3458C355.13 54.3684 351.453 53.9182 349.272 55.3824C343.757 59.0846 344.655 59.345 342.492 64.9591C343.603 64.8655 344.755 64.9989 345.865 64.9684C346.206 66.8131 343.023 66.5149 341.367 67.229C336.674 69.254 333.756 71.1043 330.087 74.6074L334.611 77.4564L331.24 80.8397L334.613 81.9732L326.724 81.98L326.174 79.7034C325.307 83.0657 322.681 81.4793 320.486 83.0566C313.86 87.8172 309.712 95.8549 303.097 100.731L305.358 101.839C303.893 103.484 303.64 106.392 300.845 105.822L301.96 102.431C300.569 100.854 293.42 111.638 292.454 112.699C287.519 118.122 286.168 118.33 282.763 124.266C282.424 124.858 281.27 125.605 280.583 126.269C281.242 125.983 282.962 126.437 283.957 126.272L283.958 128.53L279.459 128.527C279.355 128.455 280.468 126.319 280.583 126.269C280.433 126.415 278.981 125.772 278.216 127.014C277.455 128.253 278.333 130.545 278.193 130.66C277.262 131.424 274.683 130.81 272.603 133.641C268.211 139.616 260.171 144.281 254.698 150.635C252.877 152.751 251.965 156.06 250.213 158.327C248.296 160.808 242.913 161.425 245.706 165.988L239.092 167.287C240.414 171.497 230.157 170.616 233.302 177.349L231.625 175.093L220.738 189.642L218.685 188.699C219.514 193.009 214.063 194.018 211.357 196.708C208.249 199.797 205.107 203.316 205.158 208.002L203.486 204.613L202.938 209.142L199.523 209.157C199.413 209.238 200.583 210.674 200.354 211.166C199.245 213.55 186.163 221.908 183.787 225.617L186.028 227.296C181.16 227.345 181.188 231.435 180.135 232.637C179.254 233.643 177.196 233.583 175.979 234.749C173.827 236.812 172.02 239.766 169.156 241.511L172.542 242.637L169.159 244.331L173.653 245.467L166.005 244.564C158.984 254.489 148.25 261.954 142.699 272.714C135.058 272.262 146.26 269.653 142.133 265.465C144.749 262.582 148.58 259.7 147.244 255.643L144.389 255.704L144.386 252.304L148.884 253.422C148.082 249.679 152.735 245.972 153.393 241.52C153.973 237.596 149.875 242.852 150.01 239.83C155.137 238.695 156.522 237.765 158.244 232.974C158.991 230.898 156.487 229.85 161.253 227.884L161.222 226.219C156.439 226.827 162.142 220.804 164.622 220.504L162.379 219.374L164.702 217.615C161.298 210.409 165.651 213.474 167.71 211.128C168.367 210.38 168.491 208.068 169.501 206.739C172.258 203.111 176.67 199.623 176.219 194.601L178.116 194.397L175.886 191.005C178.744 193.223 178.831 190.305 179.242 187.605L175.878 188.179L184.874 180.221L180.381 179.103C180.185 176.234 186.655 171.982 186.798 171.494C187.747 168.259 184.894 168.867 191.051 166.101L190.505 162.641C196.744 165.643 192.89 159.145 195.571 158.098L197.242 160.353C197.061 156.348 199.231 154.858 200.494 152.618C201.368 151.068 199.996 147.797 203.997 147.856L203.403 145.595L199.508 144.489C202.461 144.745 201.921 142.052 203.247 140.272C204.758 138.243 211.27 131.427 212.226 129.436C213.185 127.437 212.485 122.143 214.137 119.512L216.367 121.766C215.69 118.512 218.501 118.112 219.751 115.52L217.508 113.844C221.805 113.329 222.129 108.228 223.156 104.761L228.75 105.876L228.813 92.8734L230.405 91.4617C236.178 93.8838 233.319 88.8508 237.631 87.0794L236.616 83.2023L241.141 82.036L240.472 77.4354C245.785 77.0337 244.454 70.1129 250.135 70.6718L249.294 68.6188C254.985 67.5464 246.454 65.7384 250.423 62.9826C251.401 62.3033 253.495 63.3712 253.52 62.1813L250.135 60.4943L256.884 58.1911C254.061 52.8886 254.975 60.2475 251.26 59.3405L251.333 56.0401L256.89 54.7937L255.748 52.5448C260.623 54.4303 260.869 52.2073 263.629 48.5519L259.136 47.4333C265.521 45.3947 266.394 41.6137 265.956 34.9913L262.507 34.3663C262.048 32.5279 266.594 33.8186 264.727 30.9939C264.664 30.8981 263.462 31.0261 262.621 30.0991C258.103 25.1152 257.378 22.253 249.545 22.9525C239.4 23.8584 202.933 53.1877 192.781 61.184C156.164 90.0283 124.318 119.439 92.6812 150.231L94.7454 150.23L94.7461 151.341L92.5049 151.343L92.5043 150.404C76.0226 166.448 59.5954 182.868 42.5774 199.778C32.5323 209.76 10.7611 225.93 3.57839 235.946C2.89065 236.905 -0.26737 242.751 0.210109 243.318C3.41354 240.232 5.29904 241.437 9.20231 242.191C9.70756 244.008 7.52468 243.026 7.31326 243.515C6.99826 244.244 7.54061 246.645 6.96909 247.85C8.73498 249.912 26.1895 235.576 28.3675 233.672C35.4368 227.491 44.9053 218.316 51.4228 211.461C53.8763 208.88 57.1067 205.899 57.7161 202.518L59.8616 203.587C59.1641 198.304 61.128 201.531 62.7255 200.266C72.1435 186.64 89.1104 175.417 98.7754 162.764C99.8694 161.332 100.599 160.014 100.398 158.14L103.634 159.239C105.283 155.692 107.212 151.384 111.645 151.328L109.397 146.812C118.573 148.123 120.116 140.431 125.234 136.1C126.874 134.711 131.595 133.345 131.832 133.02C132.066 132.701 130.548 128.165 133.321 125.527C135.537 123.419 138.537 125.183 140.603 124.383C145.437 122.513 146.876 114.744 152.163 114.986L151.152 110.596C154.32 110.077 155.548 106.853 157.896 105.46C164.236 101.698 170.049 98.9681 176.038 94.5833C179.831 91.8059 180.238 89.9617 180.325 85.4972L182.552 88.8835C182.581 85.033 185.203 86.8763 187.049 84.9172L184.814 82.0934C190.438 83.6327 191.778 78.826 196.071 78.6628L194.399 76.4117L191.58 78.6725L192.704 70.7349L194.713 71.2828C193.31 76.5837 196.617 70.7708 196.838 70.7168C198.203 70.3819 199.764 71.077 201.43 70.4202C201.744 70.2963 204.795 66.0423 206.195 65.6009L204.498 64.81L203.958 62.7844C211.286 64.9883 217.209 56.4728 222.828 52.6181C226.35 50.2028 230.257 48.1585 234.307 46.7926L233.23 43.4779C240.654 45.027 239.289 38.1133 240.556 35.5919C241.843 33.0307 245.69 32.9193 245.623 29.8707L247.724 30.4001L247.85 32.7025L251.227 32.124L248.99 34.3749L254.609 32.1192C254.9 34.0839 254.412 35.6734 253.752 37.4822C250.191 47.2411 242.707 57.2355 237.748 65.8341C204.703 123.123 166.282 176.38 140.126 237.251C138.843 240.238 134.814 244.093 132.894 248.117C128.286 257.777 129.147 262.24 128.583 272.068C128.435 274.661 124.942 275.679 128.599 280.147C129.135 280.801 135.012 285.246 135.713 285.522C137.288 286.142 139.046 284.961 139.65 285.391C141.463 286.685 140.092 290.283 146.715 288.102C152.519 286.191 150.982 282.165 151.323 281.917ZM387.517 37.6996L387.524 39.962L384.157 39.9642L384.161 37.7018L387.517 37.6996ZM376.265 37.7177L383.015 38.8507C382.715 41.1187 379.476 38.9061 379.089 42.2391L376.265 37.7177ZM374.022 44.5038L374.022 43.3922L376.263 43.3908L376.264 44.5023L374.022 44.5038ZM350.384 59.275L350.383 57.0174L351.486 57.0166L351.488 59.2743L350.384 59.275ZM348.139 70.6226L348.138 68.3649L349.241 68.3642L349.243 70.6218L348.139 70.6226ZM338.004 72.8985L338.002 70.6408L339.106 70.6401L339.107 72.8978L338.004 72.8985ZM334.619 72.9123L336.86 72.911L336.856 74.5898L335.173 76.3043L334.619 72.9123ZM339.131 83.1034L339.13 81.9919L341.371 81.9904L341.372 83.1019L339.131 83.1034ZM334.608 83.1236L334.611 86.5162L333.507 86.5169L333.505 83.1243L334.608 83.1236ZM325.614 89.9202C327.011 86.4531 327.965 87.5182 330.117 87.6594C330.349 87.0631 329.533 85.3101 330.674 85.3939L332.372 87.6485C331.624 87.6757 330.866 87.7085 330.117 87.6594C329.916 88.1782 330.574 89.6203 329.379 89.9408L325.614 89.9202ZM323.356 92.208C323.63 94.2995 323.402 95.5119 321.67 96.7361L321.116 92.2096L323.356 92.208ZM313.24 96.7416L313.238 94.4839L314.342 94.4832L314.343 96.7408L313.24 96.7416ZM316.618 96.7442L316.611 94.4818L319.979 94.4796L319.975 96.742L316.618 96.7442ZM310.983 99.0065L310.982 97.895L313.223 97.8935L313.224 99.005L310.983 99.0065ZM308.725 100.166L310.972 100.159L310.422 102.417L308.725 100.166ZM312.114 106.966L314.356 107.52L312.121 109.228L312.114 106.966ZM297.485 118.31L297.483 116.052L298.587 116.051L298.588 118.309L297.485 118.31ZM288.479 134.194L288.478 133.083L290.719 133.081L290.72 134.193L288.479 134.194ZM276.099 148.952L276.098 147.841L278.339 147.839L278.34 148.951L276.099 148.952ZM208.555 205.727L208.554 204.616L211.922 204.613L211.923 205.725L208.555 205.727ZM208.559 211.4L208.558 210.289L210.799 210.287L210.8 211.399L208.559 211.4ZM196.183 232.966L196.182 231.854L198.424 231.853L198.424 232.964L196.183 232.966ZM36.2113 213.801L36.2128 216.058L35.1094 216.059L35.1079 213.801L36.2113 213.801ZM148.783 108.764L146.548 110.472L146.541 108.209L148.783 108.764ZM167.919 91.1818L167.92 92.2934L164.552 92.2956L164.551 91.184L167.919 91.1818ZM190.428 71.8729L190.429 74.1306L189.326 74.1313L189.324 71.8736L190.428 71.8729ZM200.562 67.3278L200.563 69.5854L199.46 69.5862L199.459 67.3285L200.562 67.3278ZM237.717 36.6746L237.718 37.7861L235.477 37.7876L235.476 36.6761L237.717 36.6746ZM253.499 29.8392L253.497 27.5816L254.601 27.5809L254.602 29.8385L253.499 29.8392ZM233.256 86.5828L233.255 84.3255L235.496 84.324L235.497 86.5813L233.256 86.5828ZM223.125 103.603L227.616 99.0735C227.857 101.509 225.371 103.89 223.125 103.603ZM195.007 156.948L195.006 155.837L197.247 155.835L197.248 156.947L195.007 156.948ZM187.127 163.761L187.126 162.649L189.367 162.648L189.368 163.759L187.127 163.761Z" fill="#FF7961"/>
<path d="M92.5018 150.235L92.502 150.407C92.5608 150.35 92.6198 150.292 92.6787 150.235L92.5018 150.235Z" fill="#FF7961"/>
<path d="M338 67.2227L341.373 67.232C341.645 66.4358 342.199 65.7367 342.498 64.962C341.102 65.0796 336.565 66.5532 338 67.2227Z" fill="#FF7961"/>
<path d="M486.701 113.656C484.6 113.055 484.753 114.646 484.449 114.792C484.676 114.549 486.854 115.404 486.701 113.656Z" fill="#FF7961"/>
<path d="M448.426 144.315C447.726 145.115 447.623 146.176 447.301 146.585L448.427 146.584C448.353 145.84 448.474 145.063 448.426 144.315Z" fill="#FF7961"/>
<path d="M473.214 119.351L474.293 119.351C473.968 122.414 477.637 122.097 479.94 122.751L479.939 123.856C476.683 123.207 478.14 126.447 477.7 129.546C478.63 129.747 478.552 133.037 481.077 131.805L479.952 126.152L484.443 128.398C485.493 125.569 485.039 124.263 484.453 121.599C479.858 122.233 482.296 118.039 477.692 120.461C478.745 118.233 479.37 118.002 476.576 118.187C476.381 116.973 481.49 116.009 482.196 115.927C478.93 113.946 470.755 118.23 472.063 121.607C472.654 121.27 473.126 120.092 473.214 119.351ZM483.316 122.74L483.317 124.998L482.214 124.998L482.212 122.741L483.316 122.74Z" fill="#FF7961"/>
<path d="M484.222 116.934C484.801 116.289 484.279 114.973 484.448 114.792C483.692 115.154 482.977 115.612 482.196 115.928C482.353 115.91 483.244 117.605 484.222 116.934Z" fill="#FF7961"/>
<path d="M460.82 154.515C459.726 154.915 458.507 155.062 457.453 155.651L457.459 153.401C462.257 153.643 458.841 145.271 464.192 145.447C463.971 148.822 462.604 151.614 460.82 154.515C465.722 152.721 463.6 151.541 465.639 149.162C467.856 146.576 473.291 145.871 468.696 140.905L474.321 140.317L469.827 138.64C472.626 138.593 472.942 136.627 473.486 134.321L476.575 134.081C476.689 132.52 477.482 131.069 477.699 129.542C476.712 129.328 474.938 130.148 473.965 130.66C473.519 130.895 472.476 135.447 470.953 131.231C469.962 128.489 475.967 129.19 476.569 128.395L473.764 126.13L474.332 128.4L472.087 128.403L469.811 123.886L476.58 124.437C475.558 123.082 472.833 123.595 472.062 121.604C470.14 122.7 467.27 121.785 466.456 125.6L469.809 126.152L468.579 129.419L461.937 128.426L460.826 131.257L465.306 134.078L459.601 134.577L458.366 140.698L454.683 142.13L453.5 139.767C451.646 141.24 450.003 142.505 448.423 144.311L451.242 143.201L452.941 145.999L448.425 146.581C448.462 146.952 449.388 147.641 449.284 148.282L447.312 149.985L447.298 146.581C445.007 149.487 443.192 150.035 441.77 151.783C440.155 153.767 439.326 158.824 437.157 161.328L434.926 159.078L436.064 163.596L441.665 161.335L437.165 171.543L436.037 167.012C431.863 171.237 429.95 169.528 425.537 170.443C424.574 170.642 425.213 173.71 422.554 171.558C423.565 176.069 420.089 174.52 417.944 176.56C414.749 179.598 412.883 184.644 409.852 188.094C409.6 188.38 408.208 187.749 407.885 188.093C406.605 189.458 407.216 192.053 404.742 192.185L406.784 196.521L404.536 197.649L407.889 199.366C405.473 201.595 404.883 199.819 402.281 202.207L406.783 202.209L406.777 205.607L402.279 204.466L402.281 202.207C400.939 203.438 400.065 204.785 398.91 206.186L402.273 205.612L400.403 208.862L392.155 209.011L396.646 205.626L392.033 206.286L391.057 211.234C392.982 212.062 396.338 211.415 395.52 214.692C388.821 209.372 374.857 218.975 376.928 227.245L381.217 228.345L382.018 231.716C378.703 228.854 374.533 233.073 374.167 232.847C373.953 232.714 371.405 228.879 371.896 228.326L375.271 227.765L372.452 227.19L368.85 232.837C369.15 232.721 369.714 232.723 370.752 232.86L371.89 238.526L368.512 235.133C368.101 236.807 368.844 239.163 366.273 239.672L367.386 235.133L359.507 240.798C361.511 242.27 366.17 240.749 367.39 241.35C369.351 242.316 368.721 243.351 366.526 243.251L367.401 245.335C360.773 243.005 358.488 242.273 354.436 248.753L352.204 246.499L348.326 253.887C343.155 254.071 343.408 255.357 342.612 260.119C337.152 255.42 333.233 268.312 331.114 268.961C329.866 269.343 328.491 268.065 326.819 268.526C325.343 268.932 319.111 272.069 318.41 273.758L317.872 270.926L315.607 271.487L316.463 268.124L317.863 267.502C313.383 265.677 316.588 262.235 318.981 259.539C314.661 258.634 317.926 249.645 319.056 246.251C319.224 245.748 322.387 244.726 320.959 241.371C320.57 240.456 317.98 241.549 318.965 238.571L322.303 239.713C324.295 233.885 325.195 228.217 329.062 223.232C322.398 220.744 329.502 218.748 327.943 214.747L331.32 218.132C330.777 215.444 332.421 213.768 333.142 211.623C333.387 210.895 332.481 209.587 332.689 209.244C333.009 208.719 336.421 207.824 336.944 206.204L332.454 204.511C332.324 202.241 335.787 203.846 337.321 203.432C338.489 203.117 338.072 201.168 339.199 200.54L335.824 199.978L335.833 196.572C338.494 198.629 337.893 196.049 338.324 195.835C338.878 195.56 339.875 196.516 340.095 196.306C341.1 195.339 341.832 192.407 343.688 191.433L342.024 188.663L335.826 190.895L338.078 188.078L335.821 186.378L343.159 188.401C348.778 184.627 345.706 183.15 345.292 180.128C344.851 176.903 348.103 177.599 348.887 176.896C353.808 172.48 356.787 166.944 354.952 160.264L358.308 162.512C359.796 158.774 364.175 155.693 361.845 151.3L365.055 149.473L360.581 150.035L361.708 145.506L365.611 147.78C371.286 143.94 375.892 127.859 365.957 139.533L360.574 137.554L360.56 140.977L356.052 139.842L357.204 142.093C351.781 141.478 352.73 145.899 351.475 148.129C350.601 149.682 348.965 150.855 347.916 152.674C347.172 153.966 349.177 156.146 345.948 155.743C346.751 159.867 353.602 155.764 352.696 160.247L344.82 160.265C343.072 162.902 348.335 162.517 347.055 163.652C344.327 166.071 336.302 165.784 337.723 172.564L335.821 172.766L338.053 176.15L334.696 175.01L330.21 184.676L332.427 186.37L333.587 184.689C332.978 190.761 324.969 192.377 327.931 198.844L325.7 196.594C323.246 202.563 315.143 208.719 320.107 215.305L317.88 215.92L320.021 219.76L317.25 223.817L316.128 221.537L315.023 223.621L313.324 222.686C311.356 225.021 315.004 228.36 314.382 229.432C314.323 229.534 312.696 229.385 312.162 230.236C310.346 233.126 310.831 239.778 305.45 242.565L308.818 243.123L305.455 247.654C308.091 246.176 310.043 246.423 312.708 247.716L314.452 245.968C314.104 253.512 314.282 249.588 312.481 250.272C312.253 250.359 311.794 251.849 310.835 252.208L312.787 252.205L313.34 254.45L305.459 254.459L305.531 269.61C312.405 276.778 323.517 284.676 333.936 282.55C341.409 281.025 362.833 261.541 369.107 255.522C395.473 230.232 426.126 196.095 450.145 168.153C453.257 164.532 458.433 158.396 460.82 154.515ZM460.814 136.349L460.813 135.238L463.054 135.236L463.055 136.348L460.814 136.349ZM465.302 136.364L465.303 138.621L464.2 138.622L464.198 136.365L465.302 136.364ZM454.064 143.176C457.881 144.323 460.786 141.598 459.688 137.502C463.16 136.899 466.168 142.86 462.497 144.298L460.823 142.04L460.809 145.461C457.026 142.784 453.379 150.59 454.064 143.176ZM356.068 144.361L356.067 143.249L358.309 143.248L358.309 144.359L356.068 144.361ZM354.939 148.9L358.305 145.506C358.678 147.652 356.994 149.283 354.939 148.9ZM351.584 151.75L353.802 150.047L353.258 153.445L351.584 151.75ZM353.822 154.591L356.069 154.595L354.376 156.849L353.822 154.591ZM347.076 172.732L347.077 171.622L350.437 170.472L350.444 172.735L347.076 172.732ZM339.205 184.114C339.861 184.249 340.453 184.069 340.94 183.618C341.389 183.201 341.447 182.471 341.489 181.871L343.697 181.834L342.462 185.099L339.2 185.218L339.205 184.114ZM330.208 205.652L330.207 203.395L331.31 203.394L331.312 205.652L330.208 205.652ZM323.452 207.926L323.45 205.668L324.554 205.668L324.555 207.925L323.452 207.926ZM323.461 222.676L323.46 220.418L324.563 220.418L324.565 222.675L323.461 222.676ZM323.465 228.349L323.464 226.091L324.567 226.091L324.569 228.348L323.465 228.349ZM316.711 243.098L316.71 241.986L318.951 241.985L318.952 243.096L316.711 243.098ZM315.582 247.637L316.719 244.251L317.821 244.249L317.829 247.641L315.582 247.637ZM346.006 268.062L342.641 271.457C342.268 269.311 343.952 267.68 346.006 268.062ZM350.502 261.235L348.256 261.231L350.495 258.972L350.502 261.235ZM357.256 254.44L357.256 255.551L355.015 255.553L355.015 254.441L357.256 254.44ZM351.625 255.561L349.378 255.557L351.618 253.298L351.625 255.561ZM358.379 249.901L358.38 251.012L356.139 251.014L356.138 249.902L358.379 249.901ZM359.504 247.631L359.505 248.742L357.263 248.744L357.263 247.632L359.504 247.631ZM373.011 241.943L373.012 244.201L371.909 244.202L371.907 241.944L373.011 241.943ZM379.778 240.788L375.258 241.927L373.023 239.682L379.778 240.788ZM378.636 231.728L378.639 236.255L377.535 236.256L377.532 231.729L378.636 231.728ZM386.527 224.898L384.28 224.905L384.284 222.642L386.527 224.898ZM413.546 187.444L413.545 185.186L414.648 185.185L414.65 187.443L413.546 187.444ZM414.823 196.026C414.81 196.367 418.323 196.988 416.911 199.928L413.551 197.66L412.431 199.922C411.54 197.473 409.64 194.833 411.533 192.268C411.923 191.739 412.952 191.762 413.533 191.418C417.261 190.958 414.877 194.593 414.823 196.026ZM431.58 179.55L431.542 185.171C428.697 185.55 428.589 185.215 427.632 182.89L423.689 186.298L420.832 182.898L418.064 185.202L418.052 187.446L421.409 185.178L420.383 188.512L422.541 189.7L416.318 189.734L415.793 181.777L418.603 183.901C421.782 179.682 423.618 180.906 428.168 181.766C426.979 177.373 430.032 172.734 434.921 173.832C433.633 176.277 428.317 174.83 430.983 179.49L434.917 176.09C435.341 179.818 435.149 179.673 431.58 179.55ZM438.306 174.941L436.06 174.948L436.063 172.685L438.306 174.941ZM454.065 160.204L452.372 162.457L451.819 160.2L454.065 160.204ZM443.95 164.735L440.616 156.887C442.726 157.29 443.157 154.378 443.873 153.982C445.345 153.167 449.386 156.479 450.681 152.252C449.071 152.533 447.725 152.485 446.187 153.389L446.171 151.131L450.669 149.983C450.609 150.703 450.852 151.694 450.681 152.252C451.4 152.127 459.597 150.198 456.315 153.371C455.935 153.738 447.851 155.431 446.167 156.214C444.09 157.18 445.008 158.476 447.295 157.931L445.068 162.466L448.444 159.067C452.616 160.785 445.442 165.859 443.95 164.735ZM440.561 169.266L440.56 168.155L442.801 168.153L442.802 169.265L440.561 169.266Z" fill="#FF7961"/>
<path d="M368.537 233.334L368.853 232.839C368.614 232.931 368.544 233.099 368.537 233.334Z" fill="#FF7961"/>
<path d="M478.818 132.95L476.577 134.086L477.136 136.349L478.818 132.95Z" fill="#FF7961"/>
<path d="M368.537 233.334L367.389 235.134L368.515 235.134C368.705 234.36 368.525 233.745 368.537 233.334Z" fill="#FF7961"/>
<path d="M310.834 252.209L309.963 252.21C310.292 252.321 310.58 252.304 310.834 252.209Z" fill="#FF7961"/>
<path d="M487.817 118.188L486.138 115.913L483.333 118.186C482.8 120.009 484.258 120.718 484.452 121.599C489.912 120.846 494.25 115.564 495.677 110.806L487.835 112.523C487.74 111.303 488.139 109.917 487.85 108.75C487.494 107.315 485.104 108.741 485.574 106.86C488.509 105.381 489.19 109.008 489.428 109.004C494.104 108.928 494.163 106.461 496.367 104.692C497.426 103.843 499.9 103.679 500.171 103.304C500.433 102.941 498.406 99.4898 500.781 98.907C505.147 97.8358 503.296 103.197 506.945 102.287L510.075 97.2069L508.075 93.8148L510.329 92.081L511.452 94.3422L512.599 86.4132L514.269 89.8022C518.352 86.006 522.684 90.9062 526.097 84.6914C522.322 84.2519 511.712 91.6015 513.948 82.7134C514.744 79.5483 517.852 78.4531 519.331 76.206C514.903 74.9139 509.012 75.0545 511.47 80.7285C503.71 79.8928 507.364 85.7963 503.591 86.4312C504.814 89.2619 507.346 86.2985 508.09 90.9381L502.465 92.0866L502.998 88.6491C497.604 92.3025 492.084 93.1642 493.444 101.175L491.213 100.623L491.208 97.776C491.042 104.651 480.663 104.733 481.077 111.39C484.487 108.269 490.323 108.998 484.433 111.955C484.408 112.708 486.046 112.853 486.699 113.655C488.07 115.339 488.127 116.014 487.817 118.188ZM509.215 87.533L509.214 86.4215L511.455 86.42L511.456 87.5315L509.215 87.533ZM503.588 94.9288L505.271 93.2429L506.961 95.4769L503.588 94.9288ZM495.706 98.888L495.705 97.7765L497.947 97.775L497.947 98.8865L495.706 98.888ZM491.199 113.658L491.195 115.337L489.512 117.052L488.958 113.66L491.199 113.658Z" fill="#FF7961"/>
<path d="M839.509 99.4114C841.331 98.7424 843.588 100.587 844.85 99.2418C841.475 95.4702 837.731 98.5359 834.176 99.8654L832.476 97.5486C832.549 98.6475 832.31 99.8801 832.466 100.946C834.28 101.607 836.189 103.2 836.416 103.195C837.22 103.175 837.786 100.044 839.509 99.4114Z" fill="#FF7961"/>
<path d="M880.943 138.348C881.464 133.411 875.911 139.895 873.543 134.919C873.32 134.45 873.136 125.735 873.231 124.529C873.676 118.874 877.866 113.875 874.147 110.021C879.431 109.957 876.601 98.991 873.017 96.9428L875.274 95.8306C871.221 88.9799 867.098 83.2776 859.492 88.4477C858.645 89.0234 857.026 89.6965 857.249 90.71L860.611 94.1198L855.53 90.7076L853.316 92.9821C848.709 85.8457 839.718 86.9614 833.432 91.0736C830.115 93.2432 831.756 94.7397 831.311 95.2621C830.937 95.7003 823.672 93.7117 821.209 99.2575L825.703 102.075L819.682 99.9936L816.711 102.676C816.292 105.277 817.565 104.26 819.23 104.087C822.442 103.754 824.885 102.243 828.461 104.406L829.716 102.019L833.593 103.205C834.02 102.906 832.568 101.627 832.468 100.946C831.935 100.752 830.925 101.079 830.218 100.937L832.477 94.1408C834.964 96.1012 838.826 96.785 841.989 96.4417C846.467 95.9559 853.878 90.4724 853.855 96.3979L851.59 95.8479L849.368 99.7887C856.192 100.283 861.315 94.8535 868.514 96.3893L868.506 99.7944L864.531 99.7314L864.017 105.469C865.992 104.097 872.33 105.231 871.884 108.862L866.835 106.586L869.635 109.99L865.145 108.871L868.509 113.402L864.022 112.27C863.467 117.853 861.156 124.946 863.772 130.113C865.958 134.427 874.022 138.013 875.311 142.89L876.978 138.364C880.231 142.853 882.454 147.323 888.822 145.168L887.696 147.4C892.648 149.468 895.588 148.616 899.522 145.178L901.206 147.408L896.707 148.546L904.524 148.471L904.595 145.154L906.261 147.42L910.792 141.75C914.121 141.14 911.06 143.845 911.328 144C914.367 145.754 914.844 138.937 916.149 137.521C918.021 135.489 922.96 136.571 923.642 135.919L923.732 132.646C927.269 134.56 930.039 135.362 933.866 133.762L934.401 131.529L938.355 133.779L939.504 130.386L936.116 129.255C940.772 130.379 944.269 133.067 948.498 128.621C950.929 126.064 949.413 126.704 953.31 123.637C954.38 122.795 954.672 120.987 955.181 120.712C955.666 120.45 964.31 120.4 965.744 120.155C966.722 119.987 966.451 117.775 968.683 117.178C974.336 115.666 972.958 118.465 979.951 113.743C982.293 112.161 986.007 109.887 989.394 108.56C992.794 107.228 996.938 109.257 997.063 103.265L1000.85 103.11L1000.29 100.844C1008.01 103.667 1011.03 98.1066 1017.59 94.9881C1026.5 90.7489 1035.33 87.0908 1044.11 83.1157C1048.49 81.131 1052 77.0834 1058.1 78.0924L1058.84 74.7066L889.912 139.471C886.218 137.077 884.829 134.579 880.943 138.348ZM863.984 88.4471L865.121 92.9764L861.753 92.9789C861.462 90.8647 861.746 89.0537 863.984 88.4471ZM845.984 92.9835L845.984 91.872L848.225 91.8705L848.226 92.9821L845.984 92.9835ZM842.595 94.1204L839.227 94.1226L839.226 93.0111L842.594 93.0088L842.595 94.1204ZM866.277 120.785L867.96 119.099L869.651 121.333L866.277 120.785ZM866.282 125.875C865.007 125.289 869.393 123.363 870.771 123.623C872.047 124.209 867.66 126.136 866.282 125.875ZM945.125 125.822L945.124 124.71L947.366 124.709L947.366 125.82L945.125 125.822Z" fill="#FF7961"/>
<path d="M552.06 179.396L552.059 178.302C546.202 176.706 550.898 173.576 550.948 170.326L553.665 171.5L554.798 169.272L562.592 172.395C564.961 172.222 565.681 169.882 566.709 169.196L562.216 170.333L562.206 166.935L566.702 166.932L566.709 169.196C568.4 168.067 572.249 167.56 572.35 164.098L568.969 162.387L568.949 166.925L564.461 165.781C564.085 163.626 566.665 165.323 567.627 164.416C568.256 163.823 567.173 160.558 570.068 161.229L566.702 157.861C570.934 158.904 572.894 163.563 577.964 161.233L577.418 159L573.457 158.388C572.676 153.878 581.877 152.325 578.242 148.745L575.713 147.645L581.335 146.503L581.885 149.886L584.71 146.497L582.748 151.619L585.822 154.433C585.845 150.868 589.512 151.218 591.585 149.403C593.515 147.713 595.159 143.919 598.224 142.506C595.852 140.815 595.665 144.243 593.275 145.421C591.119 146.483 591.071 147.182 589.243 144.787L593.718 143.069L591.478 139.682L594.845 140.818L596.073 130.698C599.05 130.702 600.818 131.013 603.853 130.594C604.216 130.544 607.945 128.14 610.605 129.444C610.823 127.131 607.687 129.069 606.298 128.136C606.11 128.01 605.425 125.67 604.978 124.931C611.293 127.513 609.707 124.736 612.088 122.94C613.023 122.235 614.822 122.844 615.123 122.634C615.599 122.299 611.1 112.629 617.694 113.872C618.778 114.077 619.875 115.654 621.384 115.855C624.167 116.226 627.471 113.943 630.875 115.817L628.622 112.436C631.454 111.205 630.737 114.735 631.445 114.751C635.93 114.856 642.367 102.507 647.754 102.186C647.928 100.473 646.721 101.72 645.508 99.9326C644.964 100.075 643.793 99.5361 643.373 100.084L642.585 103.457L636.506 103.348L637.626 107.872L634.258 106.737L633.113 112.419C630.676 110.152 629.422 110.755 626.36 111.301L625.81 113.579L623.563 111.285L622.98 114.699L618.491 105.624L617.935 110.137L615.749 108.969L614.457 111.35L611.732 110.159C611.779 111.677 611.756 113.209 611.098 114.625C607.957 121.377 606.824 117.072 601.869 118.88C600.613 119.339 597.06 124.405 595.675 125.593C594.448 126.645 593.947 127.072 592.588 128.333L594.836 128.893L592.601 130.601L592.588 128.333C592.15 128.739 587.357 131.471 587.209 131.923L588.078 137.407L584.731 132.888L582.442 135.714C582.584 136.845 585.917 135.399 584.701 138.548C581.032 135.267 577.16 142.753 576.677 142.915C573.566 143.958 577.013 141.248 572.288 144.736C561.235 152.892 550.312 161.492 539.281 169.943C536.595 172.001 529.764 173.634 530.662 178.302L526.169 177.173L527.307 180.558L523.904 181.137L526.159 183.972C519.306 177.178 515.069 184.5 508.158 181.716C509.703 188.734 512.499 195.123 519.403 188.513C519.007 192.523 521.299 192.981 524.551 194.018C526.296 189.185 530.938 192.121 535.478 190.49C536.502 190.122 548.16 183.881 548.686 183.342C549.991 182.004 549.302 178.919 552.06 179.396ZM581.338 139.692L583.584 139.695L583.587 144.213L581.341 144.219L581.338 139.692ZM585.851 143.087L588.071 144.787L586.4 146.485L585.851 143.087ZM571.207 148.758L571.206 147.647L574.574 147.644L574.575 148.756L571.207 148.758ZM568.963 153.304L568.962 151.046L570.065 151.046L570.066 153.303L568.963 153.304ZM564.449 156.705L565.586 153.32L566.687 153.317L566.695 156.709L564.449 156.705ZM563.347 157.866C565.842 158.26 567.177 162.037 565.571 163.516C563.282 165.623 563.651 160.17 561.652 161.265L557.707 164.663L557.719 162.418C558.085 161.789 564.153 160.015 563.347 157.866ZM554.329 165.794L554.327 163.537L555.431 163.536L555.432 165.793L554.329 165.794ZM543.065 174.873L543.065 173.761L545.306 173.76L545.307 174.871L543.065 174.873ZM535.189 180.561L535.711 175.995L539.674 174.891C540.321 177.318 540.919 178.379 538.563 179.998L540.805 181.683L535.189 180.561ZM522.783 188.507L521.681 188.506L520.54 185.122L522.786 185.115L522.783 188.507ZM527.303 185.1L527.307 181.708L528.408 181.709L529.55 185.093L527.303 185.1ZM540.8 183.395C540.628 182.354 542.422 183.18 542.775 182.622C544.197 180.374 540.968 175.134 545.311 176.029C544.673 178.448 545.157 185.048 540.8 183.395Z" fill="#FF7961"/>
<path d="M649.983 98.2319L644.37 93.1284C644.619 94.8401 644.51 94.8383 643.245 95.3983C643.252 95.791 641.866 97.5069 642.107 97.6569C646.853 96.81 645.031 99.2421 645.501 99.9353C646.985 99.5463 648.794 100.414 649.983 98.2319Z" fill="#FF7961"/>
<path d="M598.225 138.527C604.188 141.42 607.349 136.582 610.601 132.289L604.987 135.128L606.099 130.606L603.847 130.597C603.637 130.764 602.725 134.461 601.669 135.534C600.108 137.118 597.436 134.995 598.225 138.527Z" fill="#FF7961"/>
<path d="M642.116 93.1415L644.369 93.1286L645.5 90.8687L639.863 92.0126C640.234 93.3789 641.545 96.1507 643.244 95.3986C643.225 94.3023 642.027 94.1347 642.116 93.1415Z" fill="#FF7961"/>
<path d="M760.412 147.5L764.905 144.117L762.788 143.994L763.796 139.567C766.519 139.997 764.411 142.876 766.519 143.709C768.57 144.519 772.338 143.004 774.487 142.972C778.061 142.918 780.351 146.42 781.733 141.215L785.178 141.818L780.68 139.543L782.943 131.614C786.888 130.752 783.8 133.729 784.045 133.87C786.678 135.378 786.181 131.555 786.873 131.571L791.939 133.864L791.936 128.201C791.221 128.107 790.42 128.308 789.687 128.194L794.18 125.94L791.936 128.201C793.907 128.46 795.638 128.095 797.559 129.342L797.637 125.974L802.079 125.915L800.938 123.667L805.443 124.821L804.319 127.049L809.949 125.908C809.808 123.813 806.868 125.227 804.796 123.751C798.935 119.574 805.019 118.101 806.214 116.596C806.493 116.245 805.318 115.156 807.177 113.601C813.009 108.721 819.348 111.373 823.454 106.05C819.934 105.465 814.045 106.458 812.767 110.03L809.948 107.194L811.654 104.379C808.066 106.706 804.223 108.831 800.656 111.16C787.32 119.864 773.084 128.974 759.66 137.708C757.673 139.001 746.998 146.535 746.176 147.493C744.579 149.355 745.926 150.844 745.77 150.916C745.057 151.244 743.304 149.684 741.328 150.352C737.156 151.763 721.137 162.554 715.207 165.844C713.653 166.707 709.338 171.281 708.933 171.382C706.407 172.011 702.525 170.89 699.613 172.526L703.798 177.057L714.243 178.161C708.738 178.95 699.725 179.192 698.464 172.516C696.104 174.007 696.575 176.815 692.85 175.931C696.299 179.054 698.949 183.844 703.835 184.759C706.989 185.35 722.112 184.512 719.892 179.295L727.771 179.293L726.677 172.525L729.906 172.425L730.138 168.107L734.03 167.055L736.761 170.213L737.885 165.685C735.853 173.791 750.642 163.952 743.513 162.839C743.513 162.395 745.3 161.385 745.777 161.135L744.944 157.946L746.837 157.69L746.881 155.47C743.51 155.727 744.423 154.952 746.341 153.197L748.595 156.592L750.267 154.33C750.59 156.45 749.405 158.54 748.029 159.999C750.746 160.382 747.272 166.451 750.838 165.664L757.017 159.426L751.416 154.326L755.893 154.324L755.915 157.726L759.911 156.605L759.285 150.923L766.043 148.63L760.412 147.5ZM798.693 117.974L798.692 116.862L800.934 116.861L800.934 117.972L798.693 117.974ZM798.212 121.239C804.135 123.251 791.583 127.972 791.938 121.401C794.025 121.248 796.109 120.525 798.212 121.239ZM788.576 123.098L790.794 121.395L790.25 124.793L788.576 123.098ZM784.073 126.505L786.848 124.807L788.555 127.057L785.74 128.182L784.073 126.505ZM778.411 131.62L778.412 133.877L777.309 133.878L777.307 131.621L778.411 131.62ZM776.165 133.873L773.924 133.875L773.923 132.763L776.164 132.762L776.165 133.873ZM771.678 135.017L771.676 132.759L772.78 132.758L772.781 135.016L771.678 135.017ZM771.674 138.415L771.673 137.303L773.915 137.302L773.915 138.413L771.674 138.415ZM723.808 178.163L721.013 176.463L725.513 175.91L723.808 178.163ZM717.626 171.377L719.872 171.37L719.322 173.628L717.626 171.377ZM723.246 171.368L723.247 173.625L722.144 173.626L722.142 171.368L723.246 171.368ZM727.755 169.101L727.756 170.213L725.515 170.214L725.514 169.103L727.755 169.101ZM718.744 167.972L718.744 169.084L716.503 169.085L716.502 167.974L718.744 167.972ZM734.511 164.558L734.511 165.67L731.143 165.672L731.143 164.56L734.511 164.558ZM758.168 145.237L758.167 142.979L759.27 142.979L759.272 145.236L758.168 145.237ZM749.16 149.781L749.159 147.524L750.262 147.523L750.264 149.781L749.16 149.781ZM757.034 150.905L754.825 150.871L752.532 147.527C753.986 146.568 757.502 150.501 757.034 150.905Z" fill="#FF7961"/>
<path d="M745.779 161.138C747.923 161.497 747.369 160.705 748.031 160.002C746.626 159.586 746.264 160.885 745.779 161.138Z" fill="#FF7961"/>
<path d="M579.624 11.1931C579.433 11.6521 576.475 10.8934 578.987 14.8757C573.456 12.6635 562.037 23.1424 564.353 28.5006C563.973 28.8269 562.191 27.6207 560.948 28.0491C559.106 28.6837 549.786 37.6434 547.954 39.7584C546.271 41.7016 543.256 46.8025 541.808 49.3041L538.466 48.9571L542.965 52.3386L538.473 51.2209L539.599 54.6148L532.859 56.3272C532.873 57.9717 539.078 57.8761 539.421 57.7303C539.878 57.5356 540.23 56.0173 540.721 55.7546C543.712 54.1536 545.029 55.1264 546.352 54.6163C546.469 54.571 546.509 53.2174 547.476 52.3463C548.338 51.5703 550.024 48.4407 551.975 50.0802C554.502 52.2047 549.067 52.0201 549.736 53.4692L553.715 52.6764L555.392 55.1796C551.308 56.2103 554.014 59.3326 552.814 62.2939C552.701 62.5722 549.653 66.6602 549.42 66.8477C547.977 68.0073 545.661 65.8367 545.236 71.6361C546.632 70.8801 548.818 70.387 550.291 69.3442L550.859 71.6222L555.362 69.3592L556.488 71.622C560.018 64.4531 561.092 54.7405 569.537 53.5599L570.547 55.7473C574.993 53.9065 574.754 50.8419 573.372 46.6638C577.379 47.0577 580.618 45.5094 580.122 40.9795C574.744 41.7497 572.116 40.9277 567.75 44.9633L569.994 46.6458L559.873 45.5319L561.004 50.0658L564.356 46.6678L564.367 53.4646L560.994 51.211L561.605 54.6846L558.727 56.4356L559.878 59.1436L557.051 60.2568L555.379 58.0306L557.326 57.8538L556.959 54.5761L559.86 53.4519L559.765 51.2738L557.551 50.5715L558.729 44.4024L554.822 45.8292L553.117 47.7986C552.097 43.7048 557.291 42.6871 559.847 40.9741L557.613 39.3049C560.105 33.1671 563.14 30.9878 568.312 36.4483C570.378 31.4196 570.766 34.2236 571.12 37.5808C572.306 36.443 575.885 38.7358 576.187 35.295L576.765 39.8461C579.714 38.4623 581.144 36.0345 584.634 37.5633L577.879 33.5994L580.184 32.4107L579.486 27.3787C581.027 24.4411 584.621 25.7423 586.831 24.4759C587.717 23.9681 590.404 19.9855 591.872 18.7179C592.268 18.3763 601.718 13.0973 597.57 12.5963L592.505 12.594L594.742 9.22267C586.793 3.39347 584.22 0.114424 579.624 11.1931ZM555.359 67.0906L553.122 65.385L555.363 64.8278L555.359 67.0906ZM558.737 64.8194L556.505 63.1021L556.499 61.4232L558.74 61.4215L558.737 64.8194ZM565.504 51.2083L568.32 50.0922L570.003 52.3198L565.51 53.4685L565.504 51.2083ZM551.966 45.5415L551.967 47.7992L550.864 47.7999L550.862 45.5423L551.966 45.5415ZM549.713 45.5428L549.715 48.9354L548.612 48.9362L548.61 45.5436L549.713 45.5428ZM556.468 40.4441L556.475 42.123L554.234 42.1246L554.237 38.7268L556.468 40.4441ZM553.088 38.7277L553.054 40.9523L549.734 43.2622C548.783 41.7978 552.687 38.2556 553.088 38.7277ZM577.866 28.5111L577.867 29.6226L575.626 29.6241L575.625 28.5126L577.866 28.5111ZM574.394 28.3576L568.876 33.0386L568.793 28.5563L565.487 27.3847L573.353 25.0976L574.394 28.3576ZM573.937 22.798L571.117 21.6827L571.114 20.5733L575.614 20.5701L573.937 22.798Z" fill="#FF7961"/>
<path d="M543.278 71.8973C538.256 75.4675 541.162 83.6216 540.732 84.1158L536.244 82.9809C536.197 87.4705 531.394 89.1666 532.867 94.3309C535.854 95.2845 534.7 92.7517 535.638 92.2987C535.925 92.1602 537.521 92.9553 538.915 92.0026C540.54 90.8912 540.549 88.0655 543.42 88.4962L539.067 87.5423C536.129 87.6868 543.587 79.4043 547.487 85.2497L545.231 80.1561L547.485 80.7246L545.25 76.1749L548.632 80.7043L549.8 77.3728L554.261 77.3002C555.516 74.295 552.318 73.4186 549.435 73.1184C548.283 72.9985 546.626 74.1547 545.244 73.8989C545.254 73.1527 545.181 72.3831 545.236 71.6363C544.964 71.7838 544.048 71.3493 543.278 71.8973Z" fill="#FF7961"/>
<path d="M543.422 88.4964L544.119 88.6492C543.868 88.5777 543.638 88.5288 543.422 88.4964Z" fill="#FF7961"/>
<path d="M568.881 40.9854C570.853 41.0138 570.754 37.9313 571.12 37.5803L568.83 38.1468L568.881 40.9854Z" fill="#FF7961"/>
<path d="M546.352 54.6161C544.319 55.8959 543.363 56.12 540.721 55.7545C544.584 58.4338 540.394 61.0341 540.727 61.4179L542.974 61.9877L539.601 65.9553C544.374 66.9472 544.961 62.0219 544.246 58.1652L548.502 56.7814L547.477 52.3462C547.58 53.1261 546.933 54.2504 546.352 54.6161Z" fill="#FF7961"/>
<path d="M387.566 87.6245C384.409 90.6722 382.854 92.5458 380.158 96.5751L379.701 100.104L380.826 96.7114L384.191 99.5341L381.334 101.838C379.828 100.315 373.175 106.12 372.922 107.511C377.155 108.537 372.958 115.499 375.212 119.394L381.394 113.729L383.068 115.987L383.066 111.443L387.526 111.398L388.607 106.249L386.455 105.218L387.577 104.05C393.609 104.955 386.296 101.657 385.834 97.935C385.539 95.5624 387.148 95.3874 387.571 94.4322C387.508 92.1703 387.612 89.8855 387.566 87.6245ZM385.328 92.1587L385.326 89.901L386.43 89.9003L386.431 92.1579L385.328 92.1587ZM379.127 110.317L378.595 108.08L383.069 107.489L379.127 110.317ZM384.185 102.382L384.187 104.64L383.084 104.641L383.082 102.383L384.185 102.382Z" fill="#FF7961"/>
<path d="M422.425 2.51655C424.71 6.09036 422.686 8.98495 422.441 12.7135L428.058 11.5668L424.693 9.32707L429.176 7.04124C430.868 12.5212 430.146 12.6765 425.807 15.5632L429.19 16.126L429.191 21.7861C428.887 22.1331 420.981 18.464 422.999 24.0579L425.808 21.7926C427.614 26.7507 420.691 25.7305 419.328 27.7436C418.71 28.657 419.031 31.0049 418.041 32.6494C413.389 40.3741 405.291 48.0006 403.315 56.9801C403.279 57.1415 400.409 58.136 403.317 59.2493C403.165 59.6497 403.797 60.7779 403.079 61.2834C402.004 62.0404 399.591 60.5594 399.945 62.6438L404.44 62.6639C404.93 64.5583 402.383 63.1456 402.123 64.5235C401.83 66.0742 403.123 68.3059 402.413 70.0898L404.438 71.7071L401.085 73.9952L401.065 69.4556L395.448 70.615L397.685 72.8601L394.472 71.9143C391.36 75.9028 390.064 78.8555 387.555 83.6776L389.814 84.7812C388.735 85.3975 388.242 86.9726 387.566 87.6249C387.855 87.1307 389.39 88.7842 389.82 88.758C392.994 81.9026 394.359 84.0928 395.953 82.0362C396.368 81.5002 395.571 79.7993 397.038 78.4901C398.571 77.1214 402.7 77.6042 404.448 78.5341C402.431 73.9191 406.071 73.7921 408.952 71.1539L406.708 69.4765L410.073 64.9237L403.874 67.181L403.319 64.9344L408.943 63.7696L405.557 59.8267C409.103 57.3347 409.393 54.5673 414.572 55.8323C415.19 52.7886 413.878 54.1866 412.319 53.0176L414.669 47.9313C418.631 49.156 421.486 48.0391 421.34 43.3595L423.571 45.6152L425.82 35.4108L423.091 34.4976C425.296 34.9596 426.108 32.0213 426.573 31.9683C427.994 31.806 429.323 33.2173 431.402 32.5709C433.1 32.0432 436.565 28.6497 437.043 26.8234L434.84 24.0702C440.567 23.1471 441.161 14.9123 439.227 10.4574L435.939 11.0529L434.832 8.1727L437.075 8.74373L438.195 5.90507C433.499 7.23445 433.895 2.30985 429.191 3.62541C429.123 1.7888 433.642 2.74313 430.311 0.780383C427.389 -0.94167 426.138 4.08371 422.425 2.51655ZM403.317 59.2493L403.315 56.9801C406.22 58.0818 403.375 59.0948 403.317 59.2493ZM407.807 53.5791L407.808 55.8367L406.705 55.8375L406.703 53.5798L407.807 53.5791ZM422.444 39.9701L421.877 42.2334L415.695 41.0761L418.492 37.9569L422.444 39.9701ZM432.592 29.728L429.212 29.7299L430.237 26.3961L428.082 25.2039C430.351 24.9993 437.785 26.9608 432.592 29.728ZM435.944 18.3948L432.174 19.49L431.441 24.0525L430.498 17.4337L434.833 16.1235C433.746 18.3204 433.196 18.5989 435.944 18.3948ZM433.695 10.4298L431.449 10.4367L431.453 8.17381L433.695 10.4298Z" fill="#FF7961"/>
<path d="M387.629 98.8441L392.071 100.093L390.374 97.8276L396.557 95.515L396.577 92.1607L393.204 89.896L398.83 92.1448L396.575 88.7747C401.224 88.3881 401.481 83.3018 402.197 79.6802C398.828 79.2137 398.818 83.5622 396.596 84.6808C395.955 85.0034 394.451 84.0559 394.331 84.2154C392.305 86.9099 397.089 85.854 396.566 87.6108C393.586 85.9313 392.193 88.6131 389.817 88.7582C389.081 90.3491 388.448 92.4438 387.569 94.4327C387.602 95.6458 388.435 97.1442 387.629 98.8441ZM393.188 93.3001L393.19 95.5578L392.086 95.5585L392.085 93.3009L393.188 93.3001Z" fill="#FF7961"/>
<path d="M714.755 86.2971L713.056 90.8297L709.691 89.6902L711.933 94.2123L710.703 92.0897L706.32 93.1017L708.557 95.3408L704.067 97.0544C706.061 99.6766 709.807 96.0144 710.821 99.8809L707.448 101.018L711.944 102.149L705.234 102.172L704.631 98.7672C701.867 101.855 700.672 104.962 700.68 108.98L698.446 107.835L699.563 112.372L696.195 111.239C696.302 112.309 696.373 113.321 695.855 114.318C695.553 114.898 692.519 114.401 694.514 115.803L705.191 112.364L701.816 107.852L704.633 110.122L705.916 107.811L715.234 107.72C716.041 105.211 715.51 102.623 716.98 101.319L714.213 102.154C713.85 99.2822 714.413 96.6781 717.234 95.5053L721.924 96.3851L724.32 90.8081C719.095 91.8949 716.256 91.3977 714.755 86.2971ZM707.439 103.31L707.439 104.421L705.198 104.423L705.197 103.311L707.439 103.31ZM716.438 94.2151L714.201 92.5094L716.442 91.9522L716.438 94.2151Z" fill="#FF7961"/>
<path d="M716.98 101.318L719.828 100.459C718.438 100.494 717.556 100.808 716.98 101.318Z" fill="#FF7961"/>
<path d="M508.127 163.553L508.127 163.529C508.126 163.537 508.124 163.545 508.123 163.553L508.127 163.553Z" fill="#FF7961"/>
<path d="M518.699 134.005L522.759 132.909L520.048 128.373C521.584 132.281 515.347 136.347 514.854 131.807L513.757 131.802C514.199 133.053 512.729 133.773 512.619 134.062C511.461 137.095 512.611 140.847 509.469 138.858C504.868 143.524 507.142 141.868 506.995 145.411L513.743 151.072C515.334 145.326 519.447 139.866 518.699 134.005ZM511.489 145.408L509.258 143.691L509.251 142.012L511.492 142.01L511.489 145.408Z" fill="#FF7961"/>
<path d="M510.372 131.799L510.373 134.057L512.62 134.061L512.612 131.798L510.372 131.799Z" fill="#FF7961"/>
<path d="M520.041 128.373C519.893 127.997 519.678 127.623 519.374 127.257L520.041 128.373Z" fill="#FF7961"/>
<path d="M499.112 161.308L496.861 160.755C497.931 166.904 492.424 181.872 502.527 180.588C500.511 185.062 504.701 186.783 508.14 188.523C508.084 184.425 505.807 180.98 505.973 176.78C506.021 175.561 507.262 168.11 508.124 163.55L505.888 163.552L505.887 162.44L508.128 162.439L508.129 163.526C508.447 161.844 508.713 160.559 508.848 160.133C509.24 158.89 513.02 154.866 512.634 154.493L503.041 161.305C502.224 159.186 501.542 158.679 499.115 159.018C501.57 156.851 501.886 152.182 502.979 150.252C503.976 148.492 506.861 148.685 506.996 145.409L501.94 142.012C497.049 148.117 495.475 154.188 499.112 161.308ZM500.829 179.445L499.133 177.194L501.38 177.187L500.829 179.445ZM502.505 174.923L502.506 176.035L499.138 176.037L499.137 174.925L502.505 174.923ZM502.501 169.233C501.69 169.994 498.022 168.908 498.001 166.984L500.816 165.859C501.869 166.42 503.178 168.598 502.501 169.233ZM500.229 148.823L500.23 151.081L499.127 151.081L499.126 148.824L500.229 148.823Z" fill="#FF7961"/>
<path d="M682.125 141.912C678.31 144.998 682.498 143.663 682.713 144.848L682.715 148.008L680.445 149.26L683.822 153.224L678.196 152.109C677.303 155.126 679.644 153.924 680.196 154.927C681.375 157.07 678.652 157.844 678.594 158.037C678 160.009 677.775 161.613 678.687 163.532L683.824 164.592L680.464 167.432L680.421 169.682L690.586 178.186L690.578 164.569L684.961 166.841L684.955 161.187L690.574 163.439L692.824 155.499C691.668 156.462 683.902 156.86 683.846 154.936C683.773 152.397 689.583 154.823 690.576 154.353L687.21 150.964C691.394 151.611 691.216 150.857 693.948 154.361L695.075 145.285L691.696 145.866L693.95 148.679C687.064 146.433 689.475 148.641 687.204 150.269C686.69 150.637 685.579 149.952 685.149 150.217C684.591 150.561 685.665 152.574 683.836 152.092C682.556 148.169 686.308 145.225 682.125 141.912Z" fill="#FF7961"/>
<path d="M372.937 116.011L367.322 119.421L369.576 121.09C368.198 124.333 367.506 124.357 363.934 123.952C362.474 126.914 366.323 125.784 366.206 126.783L364.278 127.542C364.191 128.806 364.561 132.2 363.751 132.87C362.843 133.62 360.196 131.999 360.573 134.147C368.173 136.525 377.254 132.466 379.691 124.483C380.536 121.711 374.437 121.744 377.462 125.064L371.832 123.943L374.071 127.333L369.577 127.342C368.769 124.98 371.324 123.409 371.604 121.953C371.958 120.115 370.707 118.964 370.637 117.765C370.565 116.537 373.464 117.94 372.937 116.011ZM367.316 133.016L365.07 133.012L367.309 130.753L367.316 133.016ZM369.566 128.494L369.567 129.605L367.325 129.607L367.325 128.495L369.566 128.494Z" fill="#FF7961"/>
<path d="M524.978 104.554L521.724 105.801C522.994 110.256 514.226 110.607 517.104 118.175L513.67 118.591C512.125 120.034 513.108 122.881 512.531 124.115C512.044 125.155 511.104 125.122 510.876 125.474C510.546 125.985 508.482 128.131 509.809 128.4L517.111 123.861L514.853 123.301L517.683 119.312L521.612 124.973L524.978 104.554Z" fill="#FF7961"/>
<path d="M531.681 79.0374C530.46 76.9192 529.335 74.5485 532.843 75.0351L527.217 73.9056C529.562 70.2381 532.868 69.8372 530.599 64.8398L535.096 67.0929L532.869 63.127L538.46 59.1609C533.089 60.6936 526.857 57.4413 525.976 65.4369L528.326 68.2218C525.76 68.2553 526.431 71.5029 523.845 69.3747L523.849 73.9135L526.074 71.6571L528.332 81.844C527.856 78.4775 530.389 81.1801 531.681 79.0374ZM528.357 78.4488L528.356 76.1912L529.459 76.1904L529.461 78.4481L528.357 78.4488Z" fill="#FF7961"/>
<path d="M691.582 120.801C691.478 126.943 686.49 126.038 686.046 133.366L689.44 135.065L684.986 136.289L685.806 138.297L683.861 138.513L683.826 140.754C690.104 140.806 687.092 139.974 689.025 137.498C691.621 134.172 693.162 133.995 697.32 133.927L692.831 132.813L692.822 127.14C696.011 127.49 695.923 129.905 699.568 128.251L699.569 125.434L691.694 125.438L698.437 119.199L691.582 120.801Z" fill="#FF7961"/>
<path d="M681.512 67.0603L681.516 70.9589L677.018 68.1479L678.05 71.4818L675.889 72.674L678.129 74.9518C675.959 73.3129 665.447 67.6085 669.127 74.9486L664.081 73.8037L665.762 75.5277L662.382 74.9641C661.623 78.9468 664.878 76.0703 666.983 77.9751C667.39 78.3435 669.149 81.6596 669.18 82.2929L666.99 83.5607C663.81 88.3905 673.381 81.168 673.631 81.7482C673.22 79.3749 668.312 81.1913 669.138 77.2483L674.163 74.1735L677.006 74.967L674.771 76.093L676.438 78.3479L689.393 67.5643L684.899 66.994L688.259 63.601L678.141 65.8882L681.512 67.0603Z" fill="#FF7961"/>
<path d="M528.354 114.195C531.935 114.158 529.91 110.05 530.686 109.166C531.061 108.739 535.442 109.537 536.245 107.377L534 106.255C537.105 104.976 538.191 104.726 539.624 101.151C534.565 100.249 533.41 101.52 530.042 104.548L528.371 102.29C529.463 105.456 529.044 113.373 527.064 115.672C526.931 115.826 523.187 114.286 523.872 118.164L530.633 118.155C529.621 115.735 531.33 115.042 528.354 114.195Z" fill="#FF7961"/>
<path d="M659.246 88.8426L651.143 97.6565L664.618 88.0091C661.895 84.3066 662.183 88.788 661.06 89.4948C660.745 89.6928 659.577 88.6155 659.246 88.8426Z" fill="#FF7961"/>
<path d="M506.423 130.684L504.736 133.487L509.231 136.333C509.67 133.718 508.305 132.199 506.423 130.684Z" fill="#FF7961"/>
<path d="M656.753 85.1662L662.386 85.1642L661.425 83.0301L663.496 81.7828C659.399 80.1776 660.664 81.3253 658.504 83.5941C657.841 84.2911 656.336 83.4945 656.753 85.1662Z" fill="#FF7961"/>
<path d="M383.074 117.134L381.405 117.139L377.451 121.659C379.478 122.29 384.509 118.53 383.074 117.134Z" fill="#FF7961"/>
<path d="M842.601 103.793L840.916 102.098L838.103 106.604C840.348 106.965 842.517 106.445 842.601 103.793Z" fill="#FF7961"/>
<path d="M507.011 153.357L509.251 153.344L509.254 148.825L505.872 148.827L507.011 153.357Z" fill="#FF7961"/>
<path d="M582.454 154.444L580.218 154.436L579.084 158.967C581.924 159.262 582.886 157.165 582.454 154.444Z" fill="#FF7961"/>
<path d="M520.442 68.2554L519.342 68.2583L518.217 73.9234L521.582 72.7615L520.442 68.2554Z" fill="#FF7961"/>
<path d="M729.95 76.0433C733.21 76.4439 731.628 72.3048 736.704 73.7681L727.707 70.3821L730.468 73.7221L729.95 76.0433Z" fill="#FF7961"/>
<path d="M520.459 83.5597L517.153 84.0444L515.969 81.8719C515.017 86.4227 517.956 86.4184 520.459 83.5597Z" fill="#FF7961"/>
<path d="M705.551 116.918L701.831 115.784C701.012 119.326 703.583 117.324 704.866 118.387C705.644 119.032 704.54 120.763 706.317 120.313L705.551 116.918Z" fill="#FF7961"/>
<path d="M617.907 127.174L622.987 120.385C618.554 119.935 621.658 126.429 616.235 124.922L617.907 127.174Z" fill="#FF7961"/>
<path d="M816.718 118.538L818.395 120.215L821.211 119.099L821.205 116.839L816.718 118.538Z" fill="#FF7961"/>
<path d="M704.069 129.388L705.202 124.864L702.96 124.865L702.968 129.392L704.069 129.388Z" fill="#FF7961"/>
<path d="M509.246 129.537L509.246 130.648L513.74 130.651L513.733 128.388L509.246 129.537Z" fill="#FF7961"/>
<path d="M504.75 139.189L504.746 140.868L506.987 140.867L506.98 137.469L504.75 139.189Z" fill="#FF7961"/>
<path d="M522.721 80.721L524.962 80.7197L524.954 77.3219L522.725 79.0422L522.721 80.721Z" fill="#FF7961"/>
<path d="M825.708 109.455L822.34 108.901L822.342 111.159L824.009 111.152L825.708 109.455Z" fill="#FF7961"/>
<path d="M405.584 75.1382L405.586 77.3955L407.827 77.394L407.825 75.1367L405.584 75.1382Z" fill="#FF7961"/>
<path d="M824.589 114.582C823.524 113.54 816.378 114.007 816.713 115.133C818.959 118.482 819.354 114.495 821.77 114.528C822.039 114.532 823.905 120.741 824.589 114.582Z" fill="#FF7961"/>
<path d="M773.939 145.24L773.936 148.633L776.182 148.625L775.04 145.241L773.939 145.24Z" fill="#FF7961"/>
<path d="M732.2 78.3264L728.832 78.3342L728.835 79.4438L732.196 80.5894L732.2 78.3264Z" fill="#FF7961"/>
<path d="M722.052 83.4329L719.832 81.7326L720.38 85.1303L722.052 83.4329Z" fill="#FF7961"/>
<path d="M655.624 87.4539L650.009 88.5873C648.778 92.8621 656.904 90.5134 655.624 87.4539Z" fill="#FF7961"/>
<path d="M645.495 82.9217L645.496 85.179L647.737 85.1775L647.735 82.9202L645.495 82.9217Z" fill="#FF7961"/>
<path d="M626.367 106.756C625.618 108.178 628.172 110.709 628.6 110.158C629.35 108.736 626.796 106.205 626.367 106.756Z" fill="#FF7961"/>
<path d="M457.411 138.069L455.191 136.369L455.74 139.767L457.411 138.069Z" fill="#FF7961"/>
<path d="M624.103 118.09L624.105 116.98L620.737 116.977L620.744 119.24L624.103 118.09Z" fill="#FF7961"/>
<path d="M538.464 67.0967L538.467 63.7043L536.22 63.7114L537.362 67.0954L538.464 67.0967Z" fill="#FF7961"/>
<path d="M486.713 123.873L486.715 126.13L488.956 126.129L488.954 123.871L486.713 123.873Z" fill="#FF7961"/>
<path d="M518.22 78.4673L518.223 81.8599L519.326 81.8592L519.324 78.4666L518.22 78.4673Z" fill="#FF7961"/>
<path d="M522.713 68.2412L524.959 68.2343L522.717 65.9784L522.713 68.2412Z" fill="#FF7961"/>
<path d="M562.138 64.823L562.141 68.2156L563.244 68.2149L563.242 64.8223L562.138 64.823Z" fill="#FF7961"/>
<path d="M611.742 130.592L613.976 128.883L611.735 128.329L611.742 130.592Z" fill="#FF7961"/>
<path d="M630.873 105.624L630.875 109.016L631.979 109.015L631.976 105.623L630.873 105.624Z" fill="#FF7961"/>
<path d="M642.123 85.1931L642.125 88.5857L643.229 88.585L643.226 85.1924L642.123 85.1931Z" fill="#FF7961"/>
<path d="M690.527 63.6094L690.527 64.721L693.895 64.7187L693.895 63.6072L690.527 63.6094Z" fill="#FF7961"/>
<path d="M318.874 104.695L318.88 106.958L321.115 105.249L318.874 104.695Z" fill="#FF7961"/>
<path d="M767.18 145.239L767.175 147.491L771.669 148.63C772.785 148.144 768.067 145.793 767.18 145.239Z" fill="#FF7961"/>
<path d="M816.711 111.174L816.718 113.437L818.953 111.728L816.711 111.174Z" fill="#FF7961"/>
<path d="M812.214 121.394L812.215 122.506L815.583 122.503L815.582 121.392L812.214 121.394Z" fill="#FF7961"/>
<path d="M800.943 128.759L798.702 128.205L798.708 130.468L800.943 128.759Z" fill="#FF7961"/>
<path d="M429.303 165.89L429.305 168.147L430.408 168.147L430.407 165.889L429.303 165.89Z" fill="#FF7961"/>
<path d="M834.735 106.624L834.736 108.881L835.84 108.881L835.838 106.623L834.735 106.624Z" fill="#FF7961"/>
<path d="M326.74 76.3302L326.74 77.4417L328.981 77.4402L328.981 76.3287L326.74 76.3302Z" fill="#FF7961"/>
<path d="M734.459 60.1706L734.461 62.4282L735.564 62.4275L735.563 60.1699L734.459 60.1706Z" fill="#FF7961"/>
<path d="M437.18 155.675L437.182 157.932L438.285 157.932L438.284 155.674L437.18 155.675Z" fill="#FF7961"/>
<path d="M733.321 70.3672C733.265 70.0011 733.476 69.4032 733.32 69.2567C733.15 69.0981 729.21 67.9458 728.829 68.1205C728.517 69.7673 731.611 70.074 733.321 70.3672Z" fill="#FF7961"/>
<path d="M726.57 62.4508L726.57 63.5623L728.812 63.5608L728.811 62.4493L726.57 62.4508Z" fill="#FF7961"/>
<path d="M722.075 78.3387L722.076 79.4502L724.317 79.4487L724.317 78.3372L722.075 78.3387Z" fill="#FF7961"/>
<path d="M716.454 81.7399L716.455 83.9976L717.558 83.9969L717.557 81.7392L716.454 81.7399Z" fill="#FF7961"/>
<path d="M411.208 63.794L411.209 64.9055L413.45 64.9041L413.449 63.7925L411.208 63.794Z" fill="#FF7961"/>
<path d="M709.715 114.648L709.717 116.906L710.82 116.905L710.819 114.647L709.715 114.648Z" fill="#FF7961"/>
<path d="M702.956 121.466L702.957 122.578L705.198 122.576L705.197 121.465L702.956 121.466Z" fill="#FF7961"/>
<path d="M695.031 61.3368L695.031 62.4483L697.272 62.4468L697.272 61.3353L695.031 61.3368Z" fill="#FF7961"/>
<path d="M695.088 135.081L695.09 137.339L696.193 137.338L696.192 135.081L695.088 135.081Z" fill="#FF7961"/>
<path d="M684.948 143.036L684.949 144.147L687.19 144.146L687.19 143.034L684.948 143.036Z" fill="#FF7961"/>
<path d="M664.626 71.5684L664.627 72.68L666.868 72.6785L666.867 71.567L664.626 71.5684Z" fill="#FF7961"/>
<path d="M662.378 78.3778L662.379 79.4893L664.62 79.4878L664.619 78.3763L662.378 78.3778Z" fill="#FF7961"/>
<path d="M648.879 81.7846L648.881 84.0423L649.984 84.0415L649.983 81.7839L648.879 81.7846Z" fill="#FF7961"/>
<path d="M636.49 90.8758L636.49 91.9873L638.731 91.9858L638.731 90.8743L636.49 90.8758Z" fill="#FF7961"/>
<path d="M616.239 118.114L616.24 120.372L617.344 120.371L617.342 118.113L616.239 118.114Z" fill="#FF7961"/>
<path d="M398.916 201.081L398.918 203.339L400.021 203.338L400.02 201.081L398.916 201.081Z" fill="#FF7961"/>
<path d="M599.352 131.741L599.354 133.998L600.457 133.998L600.455 131.74L599.352 131.741Z" fill="#FF7961"/>
<path d="M530.624 100.017L530.625 102.275L531.728 102.274L531.727 100.017L530.624 100.017Z" fill="#FF7961"/>
<path d="M526.125 110.232L526.127 112.489L527.23 112.489L527.229 110.231L526.125 110.232Z" fill="#FF7961"/>
<path d="M523.885 127.252L523.887 129.51L524.99 129.509L524.989 127.251L523.885 127.252Z" fill="#FF7961"/>
<path d="M502.508 154.497L502.51 156.755L503.613 156.754L503.612 154.497L502.508 154.497Z" fill="#FF7961"/>
<path d="M496.844 105.712L496.846 107.97L497.949 107.969L497.948 105.711L496.844 105.712Z" fill="#FF7961"/>
<path d="M490.096 121.601L490.098 123.859L491.201 123.858L491.2 121.601L490.096 121.601Z" fill="#FF7961"/>
</svg>
