<svg width="191" height="48" viewBox="0 0 191 48" fill="none" xmlns="http://www.w3.org/2000/svg">
<path d="M122.029 32.0442C121.968 31.4252 121.704 30.9448 121.239 30.6016C120.774 30.2584 120.142 30.088 119.344 30.088C118.802 30.088 118.344 30.1637 117.971 30.314C117.598 30.4655 117.313 30.6738 117.116 30.9389C116.919 31.2051 116.82 31.5069 116.82 31.8442C116.809 32.1258 116.87 32.3708 117 32.5802C117.13 32.7897 117.311 32.9708 117.541 33.1211C117.77 33.2725 118.036 33.4027 118.338 33.5128C118.64 33.6228 118.962 33.7163 119.305 33.7932L120.717 34.1305C121.402 34.2843 122.032 34.4891 122.604 34.7447C123.177 35.0003 123.673 35.3151 124.093 35.6879C124.512 36.0606 124.839 36.5009 125.072 37.0073C125.305 37.5138 125.423 38.0937 125.428 38.7493C125.423 39.7114 125.178 40.5434 124.695 41.2463C124.213 41.9492 123.517 42.4948 122.609 42.8806C121.701 43.2664 120.608 43.4593 119.33 43.4593C118.061 43.4593 116.958 43.2652 116.02 42.8758C115.081 42.4877 114.35 41.9102 113.826 41.1457C113.302 40.3812 113.027 39.4333 113.001 38.3032H116.215C116.251 38.8298 116.403 39.2688 116.672 39.6191C116.941 39.9694 117.301 40.2333 117.754 40.4096C118.206 40.586 118.719 40.6747 119.292 40.6747C119.854 40.6747 120.344 40.5931 120.761 40.4298C121.177 40.2664 121.501 40.038 121.731 39.7469C121.961 39.4558 122.076 39.1209 122.076 38.7422C122.076 38.3896 121.972 38.0925 121.765 37.8523C121.558 37.6121 121.256 37.4073 120.86 37.2381C120.464 37.0689 119.98 36.9162 119.407 36.7778L117.696 36.3482C116.371 36.0263 115.325 35.5222 114.558 34.837C113.791 34.1518 113.41 33.2287 113.415 32.0678C113.41 31.1164 113.665 30.2856 114.178 29.5744C114.692 28.8632 115.4 28.3082 116.299 27.9093C117.2 27.5105 118.222 27.3105 119.368 27.3105C120.533 27.3105 121.552 27.5105 122.424 27.9093C123.297 28.3082 123.976 28.8632 124.461 29.5744C124.947 30.2856 125.197 31.1093 125.213 32.0442H122.029Z" fill="#2D4897"/>
<path d="M127.897 43.2362V27.5254H131.219V34.453H131.426L137.081 27.5254H141.062L135.231 34.5607L141.13 43.2374H137.156L132.852 36.7784L131.218 38.7725V43.2374H127.897V43.2362Z" fill="#2D4897"/>
<path d="M146.363 27.5254V43.2362H143.041V27.5254H146.363Z" fill="#2D4897"/>
<path d="M149.347 43.2362V27.5254H152.668V40.4979H159.404V43.2362H149.347Z" fill="#2D4897"/>
<path d="M161.852 43.2362V27.5254H165.173V40.4979H171.909V43.2362H161.852Z" fill="#2D4897"/>
<path d="M182.879 32.0442C182.817 31.4252 182.553 30.9448 182.088 30.6016C181.623 30.2584 180.991 30.088 180.193 30.088C179.651 30.088 179.193 30.1637 178.821 30.314C178.448 30.4655 178.163 30.6738 177.965 30.9389C177.769 31.2051 177.669 31.5069 177.669 31.8442C177.659 32.1258 177.719 32.3708 177.849 32.5802C177.979 32.7897 178.16 32.9708 178.39 33.1211C178.619 33.2725 178.886 33.4027 179.188 33.5128C179.489 33.6228 179.811 33.7163 180.154 33.7932L181.566 34.1305C182.251 34.2843 182.881 34.4891 183.454 34.7447C184.026 35.0003 184.522 35.3151 184.942 35.6879C185.361 36.0606 185.688 36.5009 185.921 37.0073C186.154 37.5138 186.273 38.0937 186.277 38.7493C186.273 39.7114 186.028 40.5434 185.545 41.2463C185.062 41.9492 184.366 42.4948 183.458 42.8806C182.551 43.2664 181.457 43.4593 180.179 43.4593C178.911 43.4593 177.808 43.2652 176.869 42.8758C175.931 42.4877 175.199 41.9102 174.675 41.1457C174.151 40.3812 173.876 39.4333 173.85 38.3032H177.064C177.1 38.8298 177.253 39.2688 177.521 39.6191C177.79 39.9694 178.151 40.2333 178.603 40.4096C179.055 40.586 179.569 40.6747 180.141 40.6747C180.703 40.6747 181.193 40.5931 181.61 40.4298C182.026 40.2664 182.351 40.038 182.58 39.7469C182.81 39.4558 182.926 39.1209 182.926 38.7422C182.926 38.3896 182.822 38.0925 182.615 37.8523C182.408 37.6121 182.106 37.4073 181.709 37.2381C181.313 37.0689 180.829 36.9162 180.256 36.7778L178.545 36.3482C177.221 36.0263 176.175 35.5222 175.408 34.837C174.641 34.1518 174.26 33.2287 174.265 32.0678C174.26 31.1164 174.514 30.2856 175.028 29.5744C175.541 28.8632 176.249 28.3082 177.148 27.9093C178.049 27.5105 179.072 27.3105 180.217 27.3105C181.383 27.3105 182.402 27.5105 183.274 27.9093C184.146 28.3082 184.825 28.8632 185.31 29.5744C185.797 30.2856 186.046 31.1093 186.062 32.0442H182.879Z" fill="#2D4897"/>
<path d="M29.8086 16.015C29.7991 15.8718 37.0877 15.06 43.316 14.3925C47.9632 13.8943 52.0211 13.4766 52.0211 13.4766C52.0211 13.4766 52.0211 22.4811 44.723 25.455C44.723 25.455 39.0912 27.5969 33.4582 23.3923C33.4582 23.3923 30.1175 20.919 29.8086 16.015Z" fill="#375EAA"/>
<path d="M43.3171 14.3919L54.5595 11.2559L50.8732 18.6805L43.3171 14.3919Z" fill="#ED285C"/>
<path d="M48.0557 7.36808C53.1325 6.41662 54.5609 11.2556 54.5609 11.2556L43.3174 14.3928C43.418 7.77162 48.0557 7.36808 48.0557 7.36808Z" fill="#F8A71A"/>
<path d="M53.8984 8.81459L57.7267 7.07617L55.0392 10.9021L53.8984 8.81459Z" fill="#375EAA"/>
<path d="M25.5259 5.70226C25.5259 5.70226 25.0502 4.98867 25.5259 4.43247C25.5259 4.43247 26.3188 3.63959 27.1921 4.43247L36.7114 15.6973C36.7114 15.6973 37.3457 16.5694 36.7114 17.0464C36.7114 17.0464 36.0771 18.1564 34.5695 16.6499L25.5259 5.70226Z" fill="#E00A8B"/>
<path d="M24.0075 7.12514C24.0075 7.12514 23.6193 6.54172 24.0075 6.08848C24.0075 6.08848 24.6548 5.44116 25.3684 6.08848L33.1422 15.2871C33.1422 15.2871 33.6605 15.9995 33.1422 16.3888C33.1422 16.3888 32.6238 17.2953 31.3931 16.0646L24.0075 7.12514Z" fill="#E00A8B"/>
<path d="M23.4017 9.07486C23.4017 9.07486 23.0917 8.61097 23.4017 8.24885C23.4017 8.24885 23.9177 7.73288 24.4857 8.24885L30.6773 15.5753C30.6773 15.5753 31.0903 16.1433 30.6773 16.4522C30.6773 16.4522 30.2643 17.1741 29.2844 16.1942L23.4017 9.07486Z" fill="#E00A8B"/>
<path d="M43.3171 14.3836L52.0672 13.4629C52.0672 13.4629 51.8968 16.7137 50.9134 18.6935L43.3171 14.3836Z" fill="#E00A8B"/>
<path d="M52.0659 13.4635L54.6173 11.2305L50.9121 18.6942C50.9121 18.6942 52.0766 14.9807 52.0659 13.4635Z" fill="#375EAA"/>
<path d="M50.5009 10.0023C50.6701 9.32536 51.4192 9.59518 51.8523 9.30288C51.4227 8.74431 50.3103 9.18454 50.4902 9.93363" fill="white"/>
<path d="M31.4446 21.0879C31.4446 21.0879 32.757 23.1399 34.4339 24.0582L27.6494 26.7753L31.4446 21.0879Z" fill="#E00A8B"/>
<path d="M4.57022 42.1081C4.17614 41.8584 3.97852 41.4643 3.97852 40.9235C3.97852 40.3839 4.37259 39.5626 5.1631 38.462C5.3915 38.1094 5.75954 37.9319 6.26958 37.9319C6.77845 37.9319 7.46955 38.1863 8.34172 38.6952C9.21389 39.204 10.0032 39.4585 10.7097 39.4585C11.9771 39.4585 12.6103 39.2088 12.6103 38.7106C12.6103 38.3165 11.9144 38.0254 10.5227 37.8384C9.21389 37.6514 7.9157 37.1638 6.62815 36.3745C6.0258 36.0006 5.52641 35.4136 5.13233 34.6136C4.73708 33.8136 4.54063 32.8634 4.54063 31.7628C4.54063 28.4812 6.79383 26.8398 11.3026 26.8398C12.7771 26.8398 14.2942 27.1937 15.8516 27.899C16.5782 28.2315 16.9415 28.6469 16.9415 29.1451C16.9415 29.6433 16.7131 30.2563 16.2563 30.9829C15.7995 31.7107 15.3321 32.0728 14.854 32.0728C14.6043 32.0728 14.1416 31.9166 13.467 31.6054C12.7913 31.2942 12.0588 31.138 11.2706 31.138C10.0446 31.138 9.43164 31.3664 9.43164 31.8232C9.43164 32.4468 10.1381 32.8515 11.5511 33.0385C12.9227 33.1841 14.2516 33.5793 15.5392 34.2231C16.1415 34.5142 16.6457 35.0172 17.0504 35.7343C17.4551 36.4514 17.6575 37.3496 17.6575 38.4301C17.6575 39.5105 17.4551 40.43 17.0504 41.1874C16.6457 41.946 16.0788 42.5116 15.3522 42.8856C14.0221 43.5294 12.3558 43.8513 10.3511 43.8513C8.34527 43.8536 6.41869 43.2714 4.57022 42.1081Z" fill="#2D4897"/>
<path d="M28.7815 27.2139C30.8584 27.2139 32.5885 28.0033 33.9695 29.5819C35.3506 31.1606 36.0417 33.0931 36.0417 35.3771V40.861C36.0417 41.339 36.0263 41.6976 35.9955 41.9355C35.9648 42.1745 35.8654 42.4491 35.6997 42.7615C35.4299 43.3023 34.6299 43.5721 33.3009 43.5721C32.0335 43.5721 31.2442 43.3023 30.9329 42.7615C30.7661 42.4503 30.6679 42.1698 30.6371 41.9201C30.6063 41.6704 30.5909 41.2964 30.5909 40.7982V35.3451C30.5909 34.4931 30.3519 33.8292 29.8738 33.3511C29.3957 32.873 28.7886 32.6339 28.0513 32.6339C27.3141 32.6339 26.6644 32.8576 26.1035 33.3037C25.5425 33.7511 25.2207 34.254 25.1378 34.8149V40.8598C25.1378 41.3379 25.1224 41.6964 25.0917 41.9343C25.0609 42.1733 24.9615 42.4479 24.7958 42.7603C24.526 43.3011 23.726 43.5709 22.3959 43.5709C21.087 43.5709 20.287 43.2905 19.9959 42.7295C19.8504 42.4183 19.7628 42.1485 19.7308 41.9189C19.7001 41.6905 19.6847 41.3272 19.6847 40.8278V22.1963C19.6847 21.7182 19.7001 21.3608 19.7308 21.1218C19.7616 20.8827 19.8504 20.6188 19.9959 20.3277C20.287 19.7668 21.0965 19.4863 22.4266 19.4863C23.7355 19.4863 24.5248 19.7668 24.7946 20.3277C24.9603 20.639 25.0597 20.9147 25.0905 21.1537C25.1212 21.3928 25.1366 21.7514 25.1366 22.2283V29.1145C26.1745 27.8483 27.3898 27.2139 28.7815 27.2139Z" fill="#2D4897"/>
<path d="M38.5352 29.8928C38.5352 29.4147 38.5505 29.0573 38.5813 28.8183C38.6121 28.5804 38.7008 28.3047 38.8464 27.9923C39.1375 27.4526 39.947 27.1816 41.2771 27.1816C42.2735 27.1816 42.98 27.358 43.3966 27.7118C43.7492 28.0029 43.9374 28.4491 43.9575 29.0514C43.9788 29.2597 43.9895 29.5603 43.9895 29.9544V40.8606C43.9895 41.3387 43.9741 41.6973 43.9421 41.9351C43.9114 42.1742 43.8119 42.4487 43.6463 42.7611C43.3765 43.302 42.5765 43.5718 41.2475 43.5718C39.9387 43.5718 39.1387 43.2913 38.8476 42.7304C38.702 42.4191 38.6144 42.1493 38.5825 41.9197C38.5517 41.6913 38.5363 41.328 38.5363 40.8286V29.8928H38.5352Z" fill="#2D4897"/>
<path d="M71.3444 27.2139C73.4213 27.2139 75.1515 28.0033 76.5325 29.5819C77.9135 31.1606 78.6046 33.0931 78.6046 35.3771V40.861C78.6046 41.339 78.5892 41.6976 78.5585 41.9355C78.5277 42.1745 78.4283 42.4491 78.2626 42.7615C77.9928 43.3023 77.1928 43.5721 75.8639 43.5721C74.5964 43.5721 73.8071 43.3023 73.4959 42.7615C73.329 42.4503 73.2308 42.1698 73.2 41.9201C73.1693 41.6704 73.1539 41.2964 73.1539 40.7982V35.3451C73.1539 34.4931 72.9148 33.8292 72.4367 33.3511C71.9586 32.873 71.3504 32.6339 70.6143 32.6339C69.877 32.6339 69.2273 32.8576 68.6676 33.3037C68.1067 33.7511 67.7836 34.254 67.7019 34.8149V40.8598C67.7019 41.3379 67.6866 41.6964 67.6558 41.9343C67.625 42.1733 67.5256 42.4479 67.3599 42.7603C67.0901 43.3011 66.2901 43.5709 64.9612 43.5709C63.6523 43.5709 62.8523 43.2905 62.5612 42.7295C62.4157 42.4183 62.3281 42.1485 62.2961 41.9189C62.2654 41.6905 62.25 41.3272 62.25 40.8278V22.1963C62.25 21.7182 62.2654 21.3608 62.2961 21.1218C62.3269 20.8827 62.4157 20.6188 62.5612 20.3277C62.8523 19.7668 63.6618 19.4863 64.9919 19.4863C66.3008 19.4863 67.0901 19.7668 67.3599 20.3277C67.5256 20.639 67.625 20.9147 67.6558 21.1537C67.6866 21.3928 67.7019 21.7514 67.7019 22.2283V29.1145C68.7374 27.8483 69.9528 27.2139 71.3444 27.2139Z" fill="#2D4897"/>
<path d="M83.2475 29.2081C84.9919 27.588 86.9871 26.7773 89.2296 26.7773C91.4734 26.7773 93.4567 27.5832 95.181 29.1927C96.9052 30.8033 97.7667 32.8541 97.7667 35.3464C97.7667 37.0706 97.3206 38.6031 96.4271 39.9427C95.5336 41.2823 94.4484 42.2693 93.1704 42.9036C91.8923 43.5379 90.5681 43.8538 89.1977 43.8538C87.8273 43.8538 86.4972 43.5166 85.2096 42.8409C83.9209 42.1663 82.8357 41.1687 81.9529 39.8492C81.0689 38.5309 80.6287 37.0398 80.6287 35.3783C80.631 32.8849 81.5032 30.8281 83.2475 29.2081ZM87.1433 37.6055C87.8072 38.1143 88.4829 38.3688 89.1681 38.3688C89.8533 38.3688 90.5385 38.1096 91.2248 37.5901C91.91 37.0706 92.2532 36.3026 92.2532 35.2836C92.2532 34.2659 91.9302 33.5074 91.2876 33.0091C90.6438 32.5109 89.948 32.2612 89.2 32.2612C88.4521 32.2612 87.7563 32.5216 87.1125 33.0399C86.4688 33.5594 86.1469 34.3227 86.1469 35.3298C86.1457 36.3392 86.4782 37.0966 87.1433 37.6055Z" fill="#2D4897"/>
<path d="M51.1917 38.5696C51.1917 38.6098 51.1917 38.65 51.1917 38.6903C51.1917 39.6264 51.1929 40.5636 51.1893 41.4997C51.1869 41.934 51.1219 42.3529 50.9349 42.7553C50.7538 43.1458 50.4615 43.3825 50.0674 43.5162C49.7278 43.631 49.3775 43.6913 49.0201 43.7055C48.7018 43.7186 48.3823 43.7304 48.0628 43.7209C47.6604 43.7091 47.2616 43.657 46.8734 43.5375C46.3551 43.3777 46.0025 43.0618 45.8403 42.5304C45.7421 42.2097 45.6936 41.8867 45.6877 41.5541C45.6841 41.36 45.6747 41.166 45.6747 40.9731C45.6735 36.5542 45.6747 32.1342 45.6699 27.7154C45.6699 27.5296 45.7539 27.4089 45.8806 27.3142C46.5172 26.8421 47.135 26.3462 47.7089 25.7983C48.6166 24.9332 49.4379 23.996 50.0674 22.9037C50.4497 22.2398 50.7384 21.5369 50.9029 20.7854C50.9065 20.7676 50.9065 20.7428 50.9183 20.7321C50.9574 20.6978 50.9988 20.6517 51.0449 20.6422C51.1006 20.6304 51.1159 20.6872 51.1195 20.7381C51.1432 21.0777 51.1881 21.4162 51.1881 21.7558C51.1929 25.1415 51.1917 28.5272 51.1917 31.9129C51.1917 31.9567 51.1917 31.9993 51.1917 32.0668C51.2355 32.036 51.2674 32.0194 51.2923 31.9958C51.7727 31.5473 52.2544 31.0999 52.7325 30.6491C53.3502 30.068 53.9407 29.4538 54.5916 28.9118C55.0993 28.4882 55.6436 28.0941 56.2803 27.8586C56.8282 27.6551 57.3347 27.7095 57.7998 28.0716C57.9229 28.1675 58.0495 28.2621 58.1607 28.3722C58.7134 28.9189 59.1891 29.526 59.5465 30.2195C59.653 30.4254 59.7323 30.642 59.7607 30.8739C59.8045 31.2242 59.6731 31.5236 59.4814 31.8041C59.2104 32.1981 58.8554 32.5106 58.4945 32.8159C57.5028 33.6561 56.5134 34.4963 55.5218 35.3365C55.5075 35.3484 55.491 35.359 55.4638 35.3791C55.5916 35.4868 55.7075 35.585 55.8247 35.6821C57.1347 36.7661 58.4471 37.8453 59.7524 38.9352C60.0258 39.1636 60.2802 39.4157 60.5216 39.6784C60.7808 39.9601 60.9133 40.3021 60.8684 40.6938C60.8388 40.9612 60.7465 41.2097 60.6258 41.4476C60.2341 42.2168 59.7311 42.9008 59.0625 43.4558C58.8104 43.6653 58.5359 43.8381 58.2057 43.8984C57.9323 43.9481 57.6708 43.8925 57.4176 43.7943C56.9915 43.6286 56.6152 43.3766 56.2389 43.1221C55.4815 42.6097 54.8437 41.9636 54.1892 41.334C53.3254 40.5033 52.4887 39.6429 51.5822 38.856C51.4627 38.753 51.3408 38.6536 51.2201 38.5518C51.2094 38.5589 51.2011 38.5648 51.1917 38.5696Z" fill="#2D4897"/>
<path d="M105.646 26.8945H105.15V43.2574H105.646V26.8945Z" fill="#2D4897"/>
</svg>
