<svg width="358" height="331" viewBox="0 0 358 331" fill="none" xmlns="http://www.w3.org/2000/svg">
<path d="M180.312 80.8859H177.21C177.231 77.0691 180.286 77.0743 180.312 80.8859Z" fill="#5468FF"/>
<path d="M228.279 6.02297C230.298 8.51554 230.769 9.85534 230.34 13.2878H229.325L229.242 10.2448C228.615 9.8657 227.663 10.3538 227.243 10.1773C227.165 12.2284 228.046 15.0534 227.233 17.4473C224.618 16.2945 223.769 14.773 225.172 12.2596C222.179 12.3842 217.97 12.5919 223.101 14.8457C216.691 18.6312 225.017 31.1201 215.857 32.0029L218.953 34.0748L216.898 37.1801L220.004 33.031C223.727 34.8797 219.124 37.5748 219.041 37.8656C218.845 38.5666 219.818 41.0228 218.948 42.3834L215.857 41.3396L217.928 44.9642L215.836 46.0132L217.928 47.0517L214.816 47.5814L217.871 52.3121C213.957 53.1585 217.296 56.887 215.841 60.0391L212.745 59.0005L213.838 61.519L211.818 62.5576C213.418 65.7304 212.874 70.2535 208.582 69.3862L208.748 74.4804L210.653 75.5969C206.262 75.7838 208.711 80.6599 208.064 83.381C207.577 85.4166 205.512 88.6777 204.455 90.6822L206.516 91.2014L204.45 92.7385L207.469 96.7266L202.182 103.446L200.313 102.605L203.414 106.235L200.313 105.726L200.292 110.919C197.683 109.491 196.818 111.625 196 113.889L194.094 112.985C193.561 115.494 194.369 116.61 196.699 117.124C199.459 117.737 197.056 112.923 198.242 111.952C201.354 109.314 198.097 126.674 195.13 123.382L194.105 120.266L190.998 130.137L197.196 125.459C197.289 129.156 194.783 131.862 193.535 134.79C193.012 136.016 193.24 138.69 193.012 138.908C192.432 139.459 187.881 138.02 186.871 140.508L187.891 143.104L190.988 141.042L188.927 145.721L184.779 143.114C185.867 146.464 186.162 147.627 183.738 150.369L186.83 150.436C187.052 156.6 185.628 153.422 183.133 155.473C177.996 159.695 176.634 169.946 175.231 175.591C174.998 176.52 174.051 177.232 173.383 177.901L176.479 178.93C173.222 180.628 171.187 184.18 172.332 187.757L168.194 186.734C170.814 189.461 169.473 191.813 168.194 195.022C169.214 195.879 172.58 192.057 172.207 195.407C171.845 198.657 169.608 203.642 166.128 204.39L165.093 201.269L161.981 204.899L167.149 205.418L166.108 211.645L164.037 206.452L162.079 207.984L163.99 212.584L160.945 214.745L162.996 217.871C161.489 218.395 162.193 213.784 159.91 215.804C158.17 217.341 160.956 221.859 160.516 224.196C160.22 225.754 157.73 226.714 156.741 228.693C155.871 230.432 155.105 237.5 154.442 238.414C154.059 238.943 152.971 238.502 152.656 238.642C152.883 237.458 153.153 236.596 153.691 235.537L151.646 235.552C150.206 238.222 146.986 241.197 152.661 238.642C152.091 241.639 150.719 249.236 148.441 250.555C146.572 251.635 141.994 251.292 147.224 254.449C143.501 267.831 137.179 281.12 133.487 294.71C132.648 297.794 128.319 313.918 129.878 315.491L133.518 314.474L134.026 310.298C136.599 312.215 138.893 310.324 141.212 308.507C143.071 307.048 147.783 302.452 146.447 299.918L149.052 300.728L150.548 297.327L153.707 296.787L152.645 293.687C156.948 294.751 155.591 291.106 157.067 289.787C163.871 283.721 174.843 273.58 179.441 265.713C179.824 265.053 179.425 263.802 179.607 263.568C179.695 263.454 180.953 264.503 181.408 264.29C183.842 263.147 185.587 255.161 189.936 256.272C186.975 250.363 195.606 253.478 193.483 247.995L197.118 245.819L196.15 242.791L199.246 243.82L198.335 240.88C201.302 240.506 207.645 227.805 208.753 227.452C209.602 227.182 211.399 228.636 212.714 228.241C211.083 224.466 215.893 215.856 218.467 213.732C219.937 212.522 221.9 212.787 222.024 212.652C222.599 212.039 221.045 209.708 221.247 208.7C221.449 207.693 225.384 205.901 227.466 206.171L225.131 205.398C224.261 202.64 226.622 203.71 227.243 202.645C227.999 201.358 227.88 199.389 228.797 198.164C230.236 196.237 234.166 196.404 234.989 191.907L237.05 195.012C237.884 193.059 238.339 192.566 240.675 192.93C239.644 190.873 239.996 189.44 237.568 190.359L236.6 189.331C237.816 187.976 237.128 185.566 237.62 184.424C238.738 181.817 244.599 180.96 241.772 177.455L246.816 175.149L245.847 171.67L248.944 171.135L247.918 164.909L253.091 165.932C251.17 163.169 253.542 157.644 255.727 155.572C256.84 154.513 258.497 154.788 259.072 154.336C260.465 153.246 258.44 139.988 266.543 148.287C267.02 146.36 266.279 144.932 267.563 144.075L265.006 145.171C261.158 142.003 266.062 140.29 267.248 138.114C268.873 135.133 269.65 131.752 271.716 129L274.838 129.608C273.911 132.282 272.752 134.043 269.666 133.762C269.723 135.896 273.445 133.674 272.788 136.857C275.102 136.192 274.906 133.253 275.879 131.358C276.19 130.75 277.572 130.688 277.722 130.376C278.095 129.618 276.811 127.027 278.981 125.454L273.808 128.554C272.223 124.545 275.366 123.569 275.776 122.54C276.692 120.23 278.131 113.629 280.653 113.224C282.212 112.97 285.412 115.301 286.711 111.968C287.208 110.695 284.837 108.478 288.296 108.81C286.401 104.802 283.34 107.247 285.204 110.903H282.087C281.342 105.004 283.77 106.323 285.08 104.08C286.991 100.819 288.104 93.829 293.474 96.3683C294.799 93.7875 291.392 94.5508 291.351 93.7096C291.325 93.1903 292.174 90.5004 292.505 89.8721C293.153 88.6621 294.882 89.654 294.509 88.0702C288.788 88.8127 291.439 83.973 295.55 85.9774C293.743 83.3706 297.947 81.0806 300.733 81.8283C301.287 79.1125 300.065 80.2653 298.589 79.1748L299.796 75.1711L297.626 73.5353L304.87 72.476C301.986 69.3032 302.623 66.9352 303.845 63.134L306.941 64.1726C305.062 61.1088 308.065 51.8188 312.114 52.7431V51.7305C305.569 49.9701 314.33 42.3055 314.201 38.2031L317.292 39.2469C315.873 35.0615 316.412 33.3115 319.358 30.419L316.261 29.3908C318.219 26.4049 319.881 29.9465 322.138 30.58C323.381 30.9279 324.909 29.6453 327.006 31.011C331.262 33.7892 326.011 36.0065 325.882 36.3441C325.68 36.8634 326.493 38.011 326.048 39.1378C324.644 42.669 322.169 46.0911 321.564 50.0688L317.302 50.6867L320.414 51.7201L313.144 73.525L310.053 71.453C311.109 75.2905 310.638 77.5754 309.007 81.1169C308.691 81.8076 306.967 81.6881 306.946 82.4411C306.926 83.3862 307.977 84.6792 307.749 86.2371C307.128 90.5316 304.062 94.9611 303.824 99.4892L300.738 97.4173C298.672 100.808 301.836 102.299 301.613 104.931C301.261 109.158 296.606 116.563 296.057 121.351L292.448 121.315C293.997 128.855 290.082 139.277 287.198 146.485C286.685 147.762 284.003 146.485 286.225 151.433L284.159 150.914C284.179 153.017 284.014 155.297 283.289 157.275C280.627 164.566 277.065 173.939 275.32 181.012C273.958 186.532 271.364 191.756 270.737 197.504L267.584 198.169C270.794 202.49 264.612 207.667 264.498 208.228C263.752 211.806 266.093 216.033 260.351 216.874L262.474 218.478C260.294 227.047 239.09 288.836 241.705 291.635C243.999 291.796 246.272 290.69 248.167 289.532C248.814 289.138 256.721 281.535 257.047 281.011C257.441 280.372 256.213 279.147 257.13 277.594C258.906 274.572 265.565 269.638 267.626 266.98C272.032 261.283 276.563 252.201 280.658 246.063C281.518 244.775 283.646 244.354 284.49 242.547C285.463 240.465 283.894 238.647 284.329 237.858C284.511 237.526 288.549 234.867 289.331 233.777C291.718 230.453 295.068 225.037 297.554 221.241C300.371 216.936 301.178 209.536 306.936 209.583L304.88 207.532C307.925 207.978 306.662 204.608 307.744 202.625C310.322 197.894 314.946 193.605 315.231 187.773L318.322 188.822C318.276 186.511 318.441 184.143 319.203 181.941C322.594 172.168 333.084 159.217 335.865 149.787C336.181 148.707 335.881 147.373 335.943 146.23L337.998 147.284C337.061 143.088 339.008 140.892 340.308 137.584C341.229 135.237 338.589 134.801 344.077 133.632L344.362 125.552C348.597 126.113 347.23 123.028 348.421 120.011C348.732 119.227 350.441 119.269 350.436 118.625C350.425 117.597 349.151 116.485 349.571 115.276C349.669 114.99 353.687 112.778 354.231 111.48C354.552 110.711 353.351 108.727 354.107 106.863C356.224 101.644 359.657 95.6258 362.019 89.789C362.655 88.2104 361.004 86.6733 363.883 87.0212V86.0138C358.808 85.7645 363.266 78.9619 366.994 79.7564L363.991 78.6399L363.903 74.5791L368.574 74.6103C369.697 72.8135 368.957 69.5784 369.537 67.7713C370.003 66.3121 373.156 60.065 374.321 58.5695C374.678 58.1125 375.688 58.0191 376.315 57.9308V55.8796L374.254 54.8566C377.112 55.0436 376.822 52.281 377.801 51.1022C379.256 49.3574 382.005 48.8589 380.69 46.6831L382.528 45.4991C380.265 45.7743 379.975 44.7461 380.669 42.5443C384.729 39.761 391.382 39.3767 389.746 45.7795C389.544 46.5792 387.97 46.6311 387.753 47.3373C386.557 51.3047 388.058 58.0502 381.503 57.9567C385.837 62.7238 381.814 61.7371 381.555 62.7601C381.348 63.5702 382.689 65.8862 381.265 67.1273L378.386 67.2987C379.458 69.2928 379.458 70.3313 379.028 72.5175C377.097 82.3476 366.404 102.782 362.107 112.757C341.82 159.913 319.41 206.509 290.993 249.677C281.901 263.49 269.609 281.93 257.896 293.328C253.024 298.069 249.653 300.198 242.699 298.407C241.13 298.002 231.417 292.653 230.837 291.609C227.683 285.939 231.199 282.522 232.084 278.347C232.923 274.39 232.701 269.285 233.41 266.351C233.607 265.541 235.481 265.713 235.492 265.063C235.621 257.233 235.771 262.072 238.319 256.563C239.189 254.683 239.484 251.313 240.172 249.038C241.679 244.064 243.108 236.949 245.128 231.196C246.479 227.348 250.621 221.402 251.564 217.897C252.221 215.446 251.336 209.9 252.025 207.189C252.335 205.964 254.691 206.088 254.867 204.993C255.048 203.876 253.588 201.347 254.132 198.881C254.204 198.559 256.638 194.28 257.14 193.412C258.352 191.335 261.79 188.432 262.209 187.025C263.038 184.247 261.293 180.861 261.495 180.612C261.785 180.259 263.369 180.243 263.892 179.506C264.317 178.914 268.345 168.019 269.044 166.051C269.883 163.683 267.729 157.712 272.746 159.721C273.093 159.186 271.581 155.188 271.954 154.019C272.079 153.635 277.893 148.011 273.285 147.264C271.416 148.203 263.229 165.106 261.2 168.383C232.152 215.274 193.747 273.746 153.401 310.273C150.082 313.279 143.656 320.627 139.436 321.494C132.731 322.87 117.109 315.04 116.374 307.728C115.535 299.388 115.131 292.186 123.618 288.473L120.522 286.417L120.542 284.355C123.986 284.734 121.583 282.517 122.153 281.218C125.979 272.474 129.516 262.592 133.787 254.59C135.387 251.588 133.715 246.546 137.08 246.94L135.025 245.403L140.192 240.709L138.137 238.658C143.568 237.931 141.492 234.213 142.321 231.087C142.522 230.328 143.848 230.417 144.226 229.498C145.484 226.439 146.178 220.036 150.553 220.981L148.487 218.39L150.564 217.377L148.943 213.602C153.562 209.552 154.033 205.128 154.892 199.327L157.813 199.171L155.731 196.076C161.204 197.286 158.253 188.147 161.94 185.151L159.889 183.619C164.482 183.167 160.05 175.824 165.051 173.732L162.991 172.189C164.239 172.158 165.704 172.189 166.631 171.166C168.096 169.541 169.354 159.186 169.769 158.631C173.212 153.973 170.934 154.913 171.762 153.438C172.295 152.482 175.754 151.418 176.438 148.806L173.341 147.269C181.372 146.864 176.598 142.128 177.411 138.628C177.587 137.88 182.568 136.14 180.59 131.675L182.646 132.724C183.164 126.025 184.655 119.451 187.746 113.411L185.763 111.433L188.859 110.914C187.135 105.378 195.031 102.948 191.977 97.4173L197.745 98.2689L199.22 95.8439L194.653 96.3476L193.012 93.7771L197.144 90.1421L198.185 94.286L197.097 87.5976L199.22 85.993L196.124 84.4196C201.095 82.332 194.048 84.7208 197.553 79.1021C200.142 74.9582 199.381 75.7423 201.048 71.8061C202.757 67.7765 208.39 61.3892 203.368 58.4657C205.688 56.7988 205.641 54.3685 205.444 51.715L207.495 53.7817L210.068 42.2639C214.469 42.6326 213.625 38.037 211.637 35.103L214.764 35.0874C211.497 31.0941 213.739 29.0897 215.795 25.1898L213.734 24.7017V22.6453C217.623 23.3931 213.77 19.8516 215.282 19.514C218.316 18.839 215.536 22.8686 217.85 22.6298L219.942 7.58603C216.302 7.62238 215.893 10.9614 214.231 13.2878L212.16 13.319C211.461 10.3019 208.095 11.0704 205.418 10.655L204.409 13.293C204.642 13.5838 211.533 9.73071 210.612 14.3264C206.49 12.9087 207.961 17.3019 206.935 17.52L201.292 17.4577L204.005 22.7076L198.982 29.7024C198.428 30.1126 197.771 29.9724 197.144 29.9101C197.703 30.6683 199.795 30.8864 199.205 32.4806L191.982 37.2009C190.936 38.4316 196.839 38.8626 194.058 40.8359C193.406 41.2981 189.595 42.6067 189.02 42.2639L187.244 38.2187L192.997 35.1134C189.424 34.0125 187.301 33.8463 185.426 37.4606C184.551 39.1482 187.669 40.9294 182.651 40.3062L187.819 47.0569L184.722 49.1289L186.68 50.0844C184.836 51.6474 186.856 55.5265 186.695 55.7757C186.555 55.9886 184.531 56.2327 183.65 57.3752C182.34 59.0784 181.595 62.1007 180.425 64.048L178.514 63.1444L176.935 70.404L176.432 67.3039L170.229 67.8336C169.556 70.3989 176.588 67.7038 174.325 71.4167C174.128 71.7386 169.303 74.3298 169.183 76.6355L172.813 74.5739C174.6 75.9916 171.969 77.6429 170.224 77.7L172.285 79.2371C170.928 80.286 170.317 82.358 169.101 83.381C167.293 84.8973 163.099 83.5991 162.991 85.4737C162.872 87.5664 167.107 86.3305 168.148 86.0034C168.127 87.9663 164.404 88.7971 164.119 89.2853C163.747 89.9292 165.383 91.9596 164.021 94.582C163.674 95.2519 160.749 96.8721 160.376 98.4559L159.351 95.3505L156.239 100.517L154.597 96.4618L151.573 96.3943L150.02 99.4944L151.206 94.2185L157.792 95.3402V91.2014L153.665 93.2682V90.1577C158.351 91.5234 159.123 89.8669 162.975 88.0598C162.431 85.7905 159.516 86.4396 157.792 86.0086L158.828 88.0546C156.56 88.5427 154.628 90.0694 153.655 87.0472C156.751 87.6755 157.399 84.6377 159.863 83.3966C153.551 84.1911 155.441 79.3981 160.909 81.8491L159.868 84.9492H162.98L162.23 83.1058C164.228 82.9344 163.721 81.2 164.011 80.8053C164.974 79.5019 167.936 77.7883 168.013 77.539C168.371 76.4537 163.218 68.3529 170.219 71.4478C169.572 66.2809 164.73 65.4397 169.701 61.0933L173.341 65.2164L174.377 62.1111L177.463 64.1882L178.509 59.0057C175.262 58.9019 173.88 62.4694 170.229 60.5584L172.772 57.3129L180.575 55.8693L178.509 52.7795L183.552 51.6007L183.754 42.939L180.585 41.8745C181.828 39.0288 184.608 37.3671 186.193 35.0355C187.451 33.192 187.28 28.4042 189.911 29.9309C190.138 30.0607 187.368 32.5585 190.402 31.9925L193.007 27.8486C192.235 27.5422 190.18 28.5029 189.905 27.3345C195.518 20.4851 198.713 13.9109 204.916 7.06674C205.584 6.32936 207.225 6.16836 207.386 5.92431C207.557 5.65947 205.056 2.0245 208.504 0.399131C212.062 -1.27815 225.483 2.66321 228.217 6.03857L228.279 6.02297Z" fill="#5468FF"/>
<path d="M119.229 6.1037C122.559 6.26468 123.387 10.9642 120.223 11.8158C119.172 16.2142 122.61 12.9583 123.351 15.4508L119.219 15.4716C118.706 17.0139 123.237 16.2246 121.28 18.5614C120.746 19.2001 114.16 19.091 115.076 22.7312L120.643 22.7987L121.295 20.6593L123.325 22.2016L122.289 24.798C114.367 22.6533 114.155 33.8024 110.919 38.2838L114.025 40.3766L107.812 40.3921L109.878 41.4099L108.915 45.128L110.903 45.585L107.822 47.6621L109.987 49.3082C109.096 55.8149 108.304 52.668 106.429 53.1458C105.523 53.3743 103.985 54.7192 103.685 55.4566C102.701 57.8869 106.176 56.168 105.741 58.0271C102.701 58.0115 101.019 58.8112 101.614 62.1917C110.194 59.7874 99.7862 66.2733 99.5894 69.9758L97.4717 69.4617C101.272 78.6375 97.4199 80.777 95.0018 88.156C94.6083 89.3504 95.6542 91.0017 95.3902 91.2665C93.3656 93.2866 93.1378 86.9721 91.2582 89.205C90.6731 89.8956 93.7125 98.038 90.0518 100.473L88.1514 99.5803C90.9889 103.719 86.0958 107.032 86.0958 107.473C86.0751 110.262 88.69 112.677 83.9729 114.717L85.0447 118.264L80.8869 119.334C80.9335 120.939 81.9949 122.403 81.9742 124.018C81.9483 126.298 74.9634 148.134 73.7414 149.852C72.8922 151.047 70.7952 150.237 70.5311 150.475C70.2101 150.766 72.2087 156.281 71.5356 159.085C71.4424 159.475 67.6522 163.011 68.3823 166.028L63.3804 166.142L63.2924 170.198L65.3687 167.093C69.3453 169.03 64.504 173.142 66.3888 176.435C62.6969 174.648 64.0794 181.529 58.1197 180.584L60.1857 175.406H58.13L56.0641 180.08C56.1366 181.113 61.5578 181.773 58.4252 183.72L56.0537 184.728C59.5436 185.179 60.6672 187.682 60.196 190.969C50.2182 191.65 57.1204 195.222 57.1359 195.71C57.2032 197.736 55.2149 205.213 51.9062 203.448C55.0129 206.418 52.3567 208.282 51.3729 211.84C51.0104 212.343 45.0817 211.611 50.8706 214.337C45.7342 215.838 49.6176 219.104 48.5509 221.477C47.7639 223.222 45.6824 223.316 45.1542 224.162C44.5743 225.092 46.3918 228.628 45.6565 229.376C45.3096 229.734 41.975 228.384 41.5867 233.047C42.0372 235.01 45.496 232.44 44.6365 235.078C43.896 237.347 40.7013 243.853 39.4223 246.19C37.4185 249.867 34.7363 254.026 32.5409 257.755C32.0438 258.606 32.4063 260.024 31.8937 261.27C31.5778 262.028 28.7869 261.748 31.1895 266.796L29.139 265.747C27.9895 268.021 29.1598 271.869 28.3365 273.764C26.3585 278.303 18.4519 279.772 26.8763 282.847C25.8718 286.928 23.6608 290.61 22.2887 294.536C20.7923 298.809 19.8861 305.301 18.5606 309.683C17.8357 312.088 14.672 312.794 16.7121 317.691C19.6687 317.39 20.1036 314.263 21.9055 313.069C23.2 312.212 26.8763 311.636 27.0264 311.413C27.1352 311.246 25.7527 309.683 26.519 308.375C27.7928 306.199 32.7739 305.181 33.2814 302.611L31.205 300.57C32.5823 298.186 35.8082 296.924 37.403 295.299C38.423 294.255 42.5705 288.05 43.6423 287.11C44.6261 286.243 46.894 286.341 47.883 285.09C50.0991 282.27 47.8001 283.402 51.9735 279.611C52.8797 278.791 55.246 270.181 58.0472 267.481C60.108 265.492 61.1902 268.675 61.4594 261.852C62.6866 260.99 70.1946 256.804 70.5415 256.405C72.5246 254.104 67.968 254.831 68.491 253.325C71.2508 253.616 71.0851 250.23 71.5926 248.106L74.6838 249.15C73.5291 244.378 80.7885 237.435 85.0447 236.677L83.2376 234.106C86.2822 230.305 86.8622 226.239 91.253 223.695L89.1819 220.081L92.2938 220.065L90.2278 216.97L93.9041 215.989C92.1229 212.411 100.853 198.535 102.955 197.518C104.208 196.915 106.176 197.575 106.714 197.097L106.807 194.101L109.899 195.144C108.62 190.341 111.701 191.265 113.104 189.474C114.735 187.386 113.932 182.287 119.24 182.666C116.604 179.877 121.637 177.484 122.502 175.022C123.496 172.192 123.61 168.947 123.863 166.002L127.524 165.015L125.458 159.838C128.156 160.934 131.092 159.433 133.272 157.777C134.732 155.845 132.697 153.679 132.671 152.122C132.666 151.769 137.305 147.713 137.564 147.09C138.165 145.651 138.253 140.64 138.957 140.147C139.216 139.965 141.489 142.053 142.566 140.116L142.002 137L145.233 136.392L145.108 132.851C151.715 133.386 148.065 132.217 148.914 128.899C149.582 126.287 153.31 121.453 153.295 120.97C153.062 113.627 151.374 118.576 155.164 115.995C155.78 115.574 155.63 114.105 156.52 113.611L154.449 112.08L163.759 112.064C164.758 107.884 159.839 111.321 159.632 111.031C158.327 105.651 160.854 106.502 162.625 104.186C164.821 101.315 162.304 101.206 167.829 100.094C172.282 99.2012 168.393 106.902 167.917 108.948L171.158 102.857L174.11 102.722C174.772 103.74 170.672 111.778 167.912 110.002L169.853 111.119L168.89 116.171L164.795 116.234L165.82 119.339C162.635 117.558 161.139 121.437 157.551 119.344C156.955 122.247 158.586 121.39 160.657 121.427C158.229 123.898 159.482 125.55 159.612 128.681L155.972 127.663L155.474 129.709L159.606 131.781C156.883 131.589 157.981 136.382 155.133 138.724C153.144 140.36 146.278 141.362 147.122 145.75L150.043 147.806L149.266 151.535L145.662 150.486L145.046 153.519L142.022 153.612L144.093 156.707L136.844 154.651C137.15 157.569 143.224 157.46 142.959 160.197C142.747 162.372 138.817 167.887 135.809 166.075C135.71 168.723 139.879 166.007 138.921 168.65C138.719 169.206 135.71 170.707 135.074 171.496C134.825 171.797 135.835 173.07 135.705 173.215C135.384 173.573 129.745 175.879 128.565 176.466L132.702 179.041C132.122 179.789 131.035 180.334 130.605 181.119C129.585 182.967 127.881 187.698 127.291 188.659C126.54 189.874 123.408 188.913 125.458 193.057L122.362 190.995L123.382 196.178L120.291 195.139C120.959 201.661 117.044 205.032 110.981 203.448L109.925 214.883C104.105 212.457 106.336 217.92 105.43 219.821C105.099 220.517 99.6464 224.354 99.6205 224.739L101.64 228.374L98.5435 229.402L100.609 230.96L94.4115 235.654L97.5027 237.196L93.3501 243.963L90.264 242.908C90.409 247.987 86.9347 252.167 84.4907 256.342C77.164 268.873 67.5849 279.637 59.1604 291.202C57.9851 292.817 58.4148 295.798 54.9715 297.413C53.8842 297.921 52.1703 296.763 51.3729 297.921C50.358 299.401 51.7871 309.74 44.6934 304.184L45.2371 311.418L31.3707 323.024L32.2613 325.989H27.0834L27.0679 329.115L23.9197 327.443L19.3217 331C15.3399 328.912 10.9646 323.74 6.57895 324.815C5.17057 320.126 0.733123 319.114 0.11177 314.092C-0.468152 309.382 1.39588 306.609 1.42694 302.377C4.35763 301.079 5.61587 297.194 6.35631 294.302C6.7809 292.63 2.47805 296.545 3.27027 293.289L8.43265 290.667L6.35631 289.12L8.50514 288.024C7.6042 285.168 5.90582 282.94 9.51999 281.787L8.43265 278.225C13.4811 278.022 14.2526 275.816 15.371 271.293C15.6144 270.316 15.2933 267.668 16.0597 266.032C18.5036 260.798 24.0802 247.312 25.6647 241.88C26.198 240.042 25.0744 238.645 25.266 237.876C25.3436 237.575 30.1436 234.626 30.1539 234.086L28.1811 231.084C29.5377 229.765 32.9189 222.905 33.1467 221.394C33.3797 219.811 32.2044 218.455 32.251 217.531C32.282 216.871 34.1616 217.074 34.3584 216.233C34.7001 214.742 33.3797 211.029 34.3998 208.36C34.7622 207.415 36.4088 207.581 36.4658 206.932C36.8904 202.061 36.4399 202.534 39.0702 197.315C40.7789 193.929 41.4676 191.354 42.7362 188.7C44.0721 185.901 48.4163 183.331 47.8778 179.135L45.7549 178.491L45.7704 176.455L47.8209 175.811L46.9199 173.823C50.5082 172.467 47.9814 167.43 49.8868 163.972L51.9528 165.535C54.2932 164.029 54.0498 158.472 54.3036 157.927C54.4071 157.704 55.945 157.694 56.4006 156.452C58.7307 150.065 59.0931 141.7 61.0866 136.294C61.6458 134.777 63.3027 134.876 63.3027 134.248C63.3131 127.367 64.3642 131.703 66.2231 127.913C67.8438 124.615 65.8555 118.68 71.6236 119.298C71.5615 115.86 68.667 114.655 73.6844 115.143L70.588 113.601L75.7556 112.028L71.8049 107.344L75.7659 104.752L73.7103 102.172C75.7711 100.738 77.4125 100.479 76.8067 97.498L79.8979 98.5417C80.1205 96.4802 78.386 96.0336 77.9821 93.9045C77.3815 90.7005 80.7574 85.2636 79.9497 83.0411C86.3651 82.9372 82.7923 79.3905 83.2998 77.9728C83.4189 77.6457 87.5974 73.6264 87.7787 72.6605C88.0738 71.1131 87.2143 69.8875 87.1677 68.4128L89.2492 68.9217C87.0175 65.3386 89.6427 66.7822 90.7818 65.2919C91.455 64.4091 90.2744 58.9514 94.4012 59.0656L92.3404 57.5234L96.3066 55.467L95.3332 52.4655L97.5027 50.783C92.9099 51.1309 97.6218 47.3973 98.1551 46.3172C98.7765 45.0605 98.3778 42.6406 98.5642 42.49C99.0665 42.0902 102.039 43.2326 102.707 39.8469L100.687 37.8892C104.073 34.1087 104.462 26.3039 108.899 24.7876L106.838 23.7646L106.823 22.2223C109.717 21.0383 109.862 19.6051 109.179 16.6608L110.95 16.4894L110.965 14.4278L108.91 13.3997L114.077 13.3789L114.6 9.25057L114.093 15.4612L118.194 14.3603L119.276 6.1037H119.229ZM30.1435 322.868L31.1636 320.277L29.6309 318.74C28.031 319.841 27.8394 320.962 28.0828 322.868H30.1435Z" fill="#5468FF"/>
<path d="M193.78 49.7287C192.983 48.8771 197.4 39.3586 198.958 45.05L195.851 47.1427L198.943 46.6182L193.78 49.7287Z" fill="#5468FF"/>
<path d="M124.402 2.47371L122.325 0.926245L126.457 0.921047L122.331 6.10871L124.402 2.47371Z" fill="#5468FF"/>
<path d="M196.871 168.131L194.82 174.357C193.971 172.285 194.473 168.972 196.871 168.131Z" fill="#5468FF"/>
<path d="M111.969 206.574L116.096 204.476L114.956 208.521C112.512 208.88 111.472 209.16 111.969 206.569V206.574Z" fill="#5468FF"/>
<path d="M127.513 8.1914H129.564C130.18 8.80935 126.928 14.3813 126.472 13.3739L127.513 8.1914Z" fill="#5468FF"/>
</svg>
